<svg xmlns="http://www.w3.org/2000/svg" width="20" height="20" viewBox="0 0 20 20">
  <g transform="translate(5 2)">
    <path d="M10.5093001,16 L0.490699862,16 C0.22020804,16 0,15.791089 0,15.5344739 L0,2.46552614 C0,2.208911 0.220208076,2 0.490699862,2 L8.28433166,2 C8.33149433,2 8.37657629,2.01776567 8.40986759,2.04934907 L10.9479823,4.45758332 C10.9812736,4.48916672 11,4.53193589 11,4.57667904 L11,15.5344739 C11,15.791089 10.779792,16 10.5093001,16 Z M0.490699862,2.3368896 C0.415794439,2.3368896 0.355107189,2.39446349 0.355107189,2.46552614 L0.355107189,15.5344739 C0.355107189,15.6055365 0.415794439,15.6631104 0.490699862,15.6631104 L10.5093001,15.6631104 C10.5842056,15.6631104 10.6448928,15.6055365 10.6448928,15.5344739 L10.6448928,4.6464257 L8.21081335,2.33688957 L0.490699862,2.33688957 Z"/>
    <path d="M3.49982991 7C2.67286542 7 2 6.26612605 2 5.36380984L2 3.6675147C2 3.56251655 2.07789998 3.47755339 2.1741694 3.47755339 2.27043883 3.47755339 2.34833881 3.56251655 2.34833881 3.6675147L2.34833881 5.36380984C2.34833881 6.05650078 2.86506404 6.62007738 3.49982991 6.62007738 4.13493592 6.62007738 4.65166116 6.05650078 4.65166116 5.36380984L4.65166116 1.30116076C4.65166116.793236859 4.27270664.379922616 3.80700761.379922616 3.34130858.379922616 2.96235403.793236859 2.96235403 1.30116076L2.96235403 2.25801665C2.96235403 2.3630148 2.88445404 2.44797796 2.78818462 2.44797796 2.6919152 2.44797796 2.61401522 2.3630148 2.61401522 2.25801665L2.61401522 1.30116076C2.61401522.583611592 3.14910989 0 3.80700761 0 4.46490533 0 5 .583611592 5 1.30116076L5 5.36380984C4.99999997 6.26612605 4.32713458 7 3.49982991 7zM10.8159676 5L8.18411128 5C8.08234664 5 8 4.91765884 8 4.81590098L8 2.18386037C8 2.10942972 8.04494904 2.04219043 8.1136312 2.0137845 8.18195375 1.98573816 8.26178326 2.0011996 8.31428373 2.05369658L10.94614 4.6857372C10.9986405 4.73823417 11.0144626 4.81769878 10.9860548 4.88637637 10.9576469 4.95505396 10.8904032 5 10.8159676 5zM8.36822252 4.63180197L10.3715114 4.63180197 8.36822252 2.62828688 8.36822252 4.63180197z"/>
    <g transform="translate(2 8)">
      <path d="M6.77398681.479775997L.517679859.479775997C.416920984.479775997.335388193.401504517.335388193.304775997.335388193.208047477.416920984.129775997.517679859.129775997L6.77398684.129775997C6.87474572.129775997 6.95627851.208047477 6.95627851.304775997 6.95627851.401504517 6.87474568.479775997 6.77398681.479775997zM5.5734253 1.92653809L1.71824136 1.92653809C1.61748249 1.92653809 1.5359497 1.84826661 1.5359497 1.75153809 1.5359497 1.65480957 1.61748249 1.57653809 1.71824136 1.57653809L5.5734253 1.57653809C5.67418418 1.57653809 5.75571697 1.65480957 5.75571697 1.75153809 5.75571697 1.84826661 5.67418418 1.92653809 5.5734253 1.92653809zM6.77398681 3.37297973L.517679859 3.37297973C.416920984 3.37297973.335388193 3.29470825.335388193 3.19797973.335388193 3.10125121.416920984 3.02297973.517679859 3.02297973L6.77398684 3.02297973C6.87474572 3.02297973 6.95627851 3.10125121 6.95627851 3.19797973 6.95627851 3.29470825 6.87474568 3.37297973 6.77398681 3.37297973zM5.5734253 4.8194214L1.71824136 4.8194214C1.61748249 4.8194214 1.5359497 4.74114992 1.5359497 4.6444214 1.5359497 4.54769288 1.61748249 4.4694214 1.71824136 4.4694214L5.5734253 4.4694214C5.67418418 4.4694214 5.75571697 4.54769288 5.75571697 4.6444214 5.75571697 4.74114992 5.67418418 4.8194214 5.5734253 4.8194214zM6.77398681 6.26586305L.517679859 6.26586305C.416920984 6.26586305.335388193 6.18759157.335388193 6.09086305.335388193 5.99413453.416920984 5.91586305.517679859 5.91586305L6.77398684 5.91586305C6.87474572 5.91586305 6.95627851 5.99413453 6.95627851 6.09086305 6.95627851 6.18759157 6.87474568 6.26586305 6.77398681 6.26586305z"/>
    </g>
  </g>
</svg>
