<svg xmlns="http://www.w3.org/2000/svg" xmlns:xlink="http://www.w3.org/1999/xlink" width="20" height="20" viewBox="0 0 20 20">
  <defs>
    <path id="close-a" d="M9.7215,0.191043478 C9.46693478,-0.0637391304 9.0541087,-0.0637391304 8.79932609,0.191043478 L4.95628261,4.03408696 L1.11323913,0.191043478 C0.858673913,-0.0637391304 0.445847826,-0.0637391304 0.191065217,0.191043478 C-0.0637173913,0.445608696 -0.0637173913,0.858652174 0.191065217,1.11343478 L4.0338913,4.95626087 L0.191065217,8.79930435 C-0.0637173913,9.05386957 -0.0637173913,9.46669565 0.191065217,9.72147826 C0.445847826,9.97626087 0.858673913,9.97626087 1.11323913,9.72147826 L4.95628261,5.87865217 L8.79932609,9.72147826 C9.0541087,9.97626087 9.46693478,9.97626087 9.7215,9.72147826 C9.97628261,9.46669565 9.97628261,9.05386957 9.7215,8.79930435 L5.87845652,4.95626087 L9.7215,1.11321739 C9.97628261,0.858652174 9.97628261,0.445608696 9.7215,0.191043478"/>
  </defs>
  <g fill="none" fill-rule="evenodd" transform="translate(5 5)">
    <mask id="close-b" fill="#fff">
      <use xlink:href="#close-a"/>
    </mask>
    <use fill="#FFF" xlink:href="#close-a"/>
    <g fill="#333" mask="url(#close-b)">
      <rect width="20" height="20" transform="translate(-5 -5)"/>
    </g>
  </g>
</svg>
