<svg xmlns="http://www.w3.org/2000/svg" xmlns:xlink="http://www.w3.org/1999/xlink" width="20" height="20" viewBox="0 0 20 20">
  <defs>
    <path id="copy-a" d="M8.36181866,16.456315 L15.754557,16.456315 C16.1615183,16.456315 16.4907388,16.1270944 16.4907388,15.7201331 C16.4907388,15.3131718 16.1615183,14.9839512 15.754557,14.9839512 L8.36181866,14.9839512 C7.95485733,14.9839512 7.6256368,15.3131718 7.6256368,15.7201331 C7.6256368,16.1270944 7.95485733,16.456315 8.36181866,16.456315 Z M6.03047793,18.5276363 L17.8093878,18.5276363 L17.8093878,5.09231721 L6.03047793,5.09231721 L6.03047793,18.5276363 Z M5.29400159,3.61995347 L14.2512736,3.61995347 L14.2512736,1.47236373 L2.47236373,1.47236373 L2.47236373,14.9076828 L4.55781972,14.9076828 L4.55781972,4.35613534 C4.55781972,3.949174 4.88733473,3.61995347 5.29400159,3.61995347 Z M19.2817515,4.35613534 L19.2817515,19.2638181 C19.2817515,19.670485 18.9522365,20 18.5455697,20 L5.29400159,20 C4.88733473,20 4.55781972,19.670485 4.55781972,19.2638181 L4.55781972,16.3800465 L1.73618187,16.3800465 C1.32922053,16.3800465 1,16.050826 1,15.6438647 L1,0.736181866 C1,0.329220531 1.32922053,0 1.73618187,0 L14.9874555,0 C15.3944168,0 15.7236373,0.329220531 15.7236373,0.736181866 L15.7236373,3.61995347 L18.5455697,3.61995347 C18.9522365,3.61995347 19.2817515,3.949174 19.2817515,4.35613534 Z M8.36181866,12.7754056 L15.754557,12.7754056 C16.1615183,12.7754056 16.4907388,12.4461851 16.4907388,12.0392238 C16.4907388,11.6322624 16.1615183,11.3030419 15.754557,11.3030419 L8.36181866,11.3030419 C7.95485733,11.3030419 7.6256368,11.6322624 7.6256368,12.0392238 C7.6256368,12.4461851 7.95485733,12.7754056 8.36181866,12.7754056 Z M7.6256368,8.35831444 C7.6256368,7.9513531 7.95485733,7.62213257 8.36181866,7.62213257 L15.754557,7.62213257 C16.1615183,7.62213257 16.4907388,7.9513531 16.4907388,8.35831444 C16.4907388,8.76527577 16.1615183,9.0944963 15.754557,9.0944963 L8.36181866,9.0944963 C7.95485733,9.0944963 7.6256368,8.76527577 7.6256368,8.35831444 Z"/>
  </defs>
  <g fill="none" fill-rule="evenodd">
    <mask id="copy-b" fill="#fff">
      <use xlink:href="#copy-a"/>
    </mask>
    <use fill="#4A4A4A" xlink:href="#copy-a"/>
    <g fill="#006496" mask="url(#copy-b)">
      <rect width="20" height="20"/>
    </g>
  </g>
</svg>
