<svg xmlns="http://www.w3.org/2000/svg" xmlns:xlink="http://www.w3.org/1999/xlink" width="22" height="23" viewBox="0 0 22 23">
  <defs>
    <path id="edit-a" d="M24.5211371,5.00452662 C24.7445037,4.97961201 24.9669663,5.05845952 25.1247869,5.21847844 L28.7925325,8.88622405 C29.0750889,9.1720282 29.0750889,9.63197335 28.7925325,9.9177775 L17.7892957,20.9210143 C17.6898078,21.024126 17.5623031,21.0958474 17.4225211,21.127325 L12.77671,22.1053905 C12.5333684,22.1575516 12.280176,22.0827892 12.1041989,21.9068121 C11.9282217,21.7308349 11.8534593,21.4776425 11.9056204,21.2343009 L12.8836859,16.5884898 C12.913025,16.4495838 12.9820382,16.3221747 13.0823555,16.2217153 L24.0855923,5.21847844 C24.2023013,5.09982033 24.3558893,5.0243736 24.5211371,5.00452662 Z M24.6051896,6.76962919 L14.6411473,16.7413126 L17.2696984,19.3698636 L27.2337406,9.40582134 L24.6051896,6.76962919 Z M7.65714842,7.44969035 C7.68260158,7.448363 7.70810663,7.448363 7.73355979,7.44969035 L18.4922802,7.44969035 C18.7568244,7.44594904 19.0028901,7.58493869 19.136254,7.81343745 C19.2696179,8.0419362 19.2696179,8.32454275 19.136254,8.5530415 C19.0028901,8.78154026 18.7568244,8.92052991 18.4922802,8.9167886 L8.46710891,8.9167886 L8.46710891,25.543902 L25.0942223,25.543902 L25.0942223,15.5187307 C25.090481,15.2541865 25.2294707,15.0081208 25.4579694,14.8747569 C25.6864682,14.741393 25.9690747,14.741393 26.1975735,14.8747569 C26.4260722,15.0081208 26.5650619,15.2541865 26.5613206,15.5187307 L26.5613206,26.2774511 C26.5612801,26.6825623 26.2328827,27.0109597 25.8277714,27.0110003 L7.73355979,27.0110003 C7.32844857,27.0109597 7.00005117,26.6825623 7.00001067,26.2774511 L7.00001067,8.18323947 C6.99799411,7.80618093 7.28213875,7.48899623 7.65714842,7.44969035 Z M14.0374975,18.2084108 L13.5713882,20.4396227 L15.794959,19.9658722 L14.0374975,18.2084108 Z"/>
  </defs>
  <use fill="#FFF" transform="translate(-7 -5)" xlink:href="#edit-a"/>
</svg>
