<svg xmlns="http://www.w3.org/2000/svg" xmlns:xlink="http://www.w3.org/1999/xlink" width="20" height="20" viewBox="0 0 20 20">
  <defs>
    <path id="edit-a" d="M15.9283064,0.0041151048 C16.131367,-0.0185345392 16.3336057,0.0531450153 16.477079,0.198616766 L19.8113932,3.53293095 C20.0682626,3.79275291 20.0682626,4.21088486 19.8113932,4.47070682 L9.8084506,14.4736494 C9.71800709,14.5673873 9.60209373,14.6325885 9.47501918,14.6612046 L5.25155454,15.550355 C5.03033492,15.5977742 4.80015999,15.5298084 4.64018078,15.3698291 C4.48020156,15.2098499 4.41223573,14.979675 4.45965492,14.7584554 L5.34880537,10.5349907 C5.37547723,10.4087126 5.43821655,10.2928861 5.52941406,10.2015593 L15.5323566,0.198616766 C15.6384557,0.0907457575 15.7780812,0.0221578154 15.9283064,0.0041151048 Z M16.0047178,1.60875381 L6.94649759,10.6739205 L9.33608942,13.0635123 L18.3943096,4.00529213 L16.0047178,1.60875381 Z M0.597407655,2.22699123 C0.620546894,2.22578454 0.643733296,2.22578454 0.666872534,2.22699123 L10.4475275,2.22699123 C10.6880222,2.22359004 10.9117183,2.34994426 11.0329582,2.55767041 C11.1541981,2.76539655 11.1541981,3.02231159 11.0329582,3.23003773 C10.9117183,3.43776387 10.6880222,3.5641181 10.4475275,3.5607169 L1.33373537,3.5607169 L1.33373537,18.6762746 L16.449293,18.6762746 L16.449293,9.56248244 C16.4458918,9.32198775 16.5722461,9.09829165 16.7799722,8.97705174 C16.9876983,8.85581184 17.2446134,8.85581184 17.4523395,8.97705174 C17.6600657,9.09829165 17.7864199,9.32198775 17.7830187,9.56248244 L17.7830187,19.3431374 C17.7829819,19.7114203 17.4844388,20.0099634 17.1161559,20.0100002 L0.666872534,20.0100002 C0.298589612,20.0099634 4.65195142e-05,19.7114203 9.69674512e-06,19.3431374 L9.69674512e-06,2.89385407 C-0.00182353378,2.55107358 0.256489769,2.26272384 0.597407655,2.22699123 Z M6.39772504,12.0076462 L5.97398928,14.0360206 L7.99541726,13.6053384 L6.39772504,12.0076462 Z"/>
  </defs>
  <g fill="none" fill-rule="evenodd">
    <mask id="edit-b" fill="#fff">
      <use xlink:href="#edit-a"/>
    </mask>
    <use fill="#4A4A4A" fill-rule="nonzero" xlink:href="#edit-a"/>
    <g fill="#006496" mask="url(#edit-b)">
      <rect width="20" height="20"/>
    </g>
  </g>
</svg>
