<svg xmlns="http://www.w3.org/2000/svg" xmlns:xlink="http://www.w3.org/1999/xlink" width="20" height="20" viewBox="0 0 20 20">
  <defs>
    <path id="filter-a" d="M0.527050784,3.84025713e-05 C0.510752648,-0.000106712173 0.494457161,0.000545099268 0.478222684,0.00199150257 C0.476920589,0.00198641667 0.475618479,0.00198641667 0.474316384,0.00199150257 C0.251407507,0.0137272599 0.0632025955,0.171630273 0.0129107481,0.389108607 C-0.0373810994,0.606586942 0.0623935472,0.831085205 0.257519584,0.939491503 C0.259463502,0.940807324 0.26141665,0.942109456 0.263378884,0.943397803 L4.04853518,4.728554 L4.04853518,9.0019914 C4.04907407,9.19046655 4.15554213,9.36262787 4.32392578,9.4473044 L6.30244138,10.4473044 C6.45738165,10.5260293 6.64208515,10.5186604 6.79026142,10.4278426 C6.9384377,10.3370248 7.02883282,10.1757846 7.02900378,10.0019914 L7.02900378,4.7070696 L10.8493168,0.888710303 C10.9529658,0.803430505 11.0179794,0.680062283 11.0297339,0.546355144 C11.0414884,0.412648004 10.9989967,0.279828775 10.9118168,0.177772803 C10.9111711,0.176467864 10.9105198,0.175165752 10.9098628,0.173866503 C10.8667448,0.124415284 10.8143167,0.0839326278 10.7555668,0.0547259026 C10.7549173,0.0540730712 10.7542659,0.0534220354 10.7536128,0.0527728026 C10.73957,0.0462513465 10.7252319,0.0403856268 10.7106448,0.0351946026 C10.7093456,0.0345378869 10.7080436,0.0338868474 10.7067388,0.0332415026 C10.6926615,0.0273807443 10.6783235,0.0221669624 10.6637698,0.0176165026 C10.6624675,0.0176114148 10.6611651,0.0176114148 10.6598628,0.0176165026 C10.6450467,0.0136743856 10.6300572,0.0104157431 10.6149418,0.00785090257 C10.6136395,0.00784581484 10.6123371,0.00784581484 10.6110348,0.00785090257 C10.5942187,0.0050332941 10.5772696,0.00307760612 10.5602538,0.00199150257 C10.5446679,0.000607440035 10.5290257,-4.43104328e-05 10.5133788,3.84025713e-05 C10.5049002,0.000473798096 10.4964342,0.00112504254 10.4879888,0.00199150257 L0.577831984,0.00199150257 C0.560948961,0.000480207816 0.544000013,-0.000171667098 0.527050784,3.84025713e-05 Z M1.73603518,1.0019915 L9.32001978,1.0019915 L6.22822268,4.0937884 C6.15272107,4.16685223 6.10215127,4.26184143 6.08369138,4.3652728 C6.04634188,4.43836637 6.02756012,4.51953038 6.02900388,4.6016009 L6.02900388,9.1894914 L5.04853518,8.6933974 L5.04853518,4.6055072 C5.0495763,4.50151972 5.01817123,4.39979466 4.95869138,4.3144915 C4.93500946,4.23079455 4.88990483,4.15472259 4.82783198,4.0937884 L1.73603518,1.0019915 Z"/>
  </defs>
  <g fill="none" fill-rule="evenodd" transform="translate(4 5)">
    <mask id="filter-b" fill="#fff">
      <use xlink:href="#filter-a"/>
    </mask>
    <use fill="#000" xlink:href="#filter-a"/>
    <g fill="#333" mask="url(#filter-b)">
      <rect width="20" height="20" transform="translate(-4 -5)"/>
    </g>
  </g>
</svg>
