<svg xmlns="http://www.w3.org/2000/svg" xmlns:xlink="http://www.w3.org/1999/xlink" width="20" height="20" viewBox="0 0 20 20">
  <defs>
    <path id="history-a" d="M11.6531874,4.67370695 L11.551567,9.56484857 L6.74472411,14.4221717 L5.72216884,13.4105043 L10.1245097,8.96164242 L10.2144174,4.64310535 L11.6531874,4.67370695 Z M19.3269298,6.12534447 C19.7586516,7.21636154 19.9991752,8.4043799 20,9.64873489 C20,14.9381922 15.696805,19.2414697 10.4071827,19.2414697 C6.02381316,19.2414697 2.32027748,16.28458 1.17919256,12.2617484 L2.50570171,11.6641512 C3.40411843,15.1878715 6.60557345,17.8016274 10.4062754,17.8016274 C14.9030606,17.8016274 18.5596628,14.143458 18.5596628,9.6476626 C18.5596628,8.91932808 18.4626615,8.21144961 18.2665968,7.53714217 C18.1731424,7.15920006 18.0469417,6.7924758 17.90045,6.43696936 C16.6514758,3.53220962 13.7631304,1.49477009 10.4068528,1.49477009 C9.00940731,1.49477009 7.69419848,1.84920423 6.54346293,2.47129924 C5.03202445,3.32426723 3.8200857,4.65333338 3.11567156,6.25509194 L4.96265533,5.09957231 L5.72571565,6.31934705 L2.00527073,8.64746051 L0.919367677,8.18472476 L0,3.77982686 L1.40717859,3.48568859 L1.80862866,5.40410358 C2.69483773,3.61337396 4.12395709,2.13624886 5.879466,1.19131112 C7.28359268,0.409856843 8.90325029,-0.0263190299 10.6224662,0.00123065642 C14.6125516,0.0665580564 17.9902751,2.60409863 19.3269298,6.12534447 Z"/>
  </defs>
  <g fill="none" fill-rule="evenodd">
    <mask id="history-b" fill="#fff">
      <use xlink:href="#history-a"/>
    </mask>
    <use fill="#000" fill-rule="nonzero" xlink:href="#history-a"/>
    <g fill="#006496" mask="url(#history-b)">
      <rect width="20" height="20"/>
    </g>
  </g>
</svg>
