<svg xmlns="http://www.w3.org/2000/svg" xmlns:xlink="http://www.w3.org/1999/xlink" width="20" height="20" viewBox="0 0 20 20">
  <defs>
    <path id="patientcard-a" d="M17.3777778,0.177777778 C18.7278072,0.177777778 19.8222222,1.27219283 19.8222222,2.62222222 L19.8222222,11.2 C19.8222222,12.5500294 18.7278072,13.6444444 17.3777778,13.6444444 L2.62222222,13.6444444 C1.27219283,13.6444444 0.177777778,12.5500294 0.177777778,11.2 L0.177777778,2.62222222 C0.177777778,1.27219283 1.27219283,0.177777778 2.62222222,0.177777778 L7.91111111,0.177777778 L12.8888889,0.177777778 L17.3777778,0.177777778 Z M18.4888889,11.2 L18.4888889,2.62222222 C18.4888889,2.0085725 17.9914275,1.51111111 17.3777778,1.51111111 L2.62222222,1.51111111 C2.0085725,1.51111111 1.51111111,2.0085725 1.51111111,2.62222222 L1.51111111,11.2 C1.51111111,11.8136497 2.0085725,12.3111111 2.62222222,12.3111111 L17.3777778,12.3111111 C17.9914275,12.3111111 18.4888889,11.8136497 18.4888889,11.2 Z M7.73333333,7.08888889 C8.6627959,7.68692726 9.22388464,8.71698569 9.22222222,9.82222222 L9.22222591,10.6666667 L7.88888889,10.6666667 L7.88888889,9.82222222 C7.9677211,9.094354 7.62380027,8.38541877 7.00333295,7.99679687 C6.38286563,7.60817498 5.59491215,7.60817498 4.97444483,7.99679687 C4.35397751,8.38541877 4.01005668,9.094354 4.08888889,9.82222222 L4.08888889,10.6666667 L2.75555556,10.6666667 L2.75555556,9.82222222 C2.75873506,8.71265921 3.32871449,7.68166701 4.26666667,7.08888889 C3.49220939,6.1698155 3.56974324,4.80603642 4.4433763,3.9806606 C5.31700936,3.15528478 6.68299064,3.15528478 7.5566237,3.9806606 C8.43025676,4.80603642 8.50779061,6.1698155 7.73333333,7.08888889 Z M6,4.66666667 C5.4894765,4.67840746 5.07840746,5.0894765 5.06666667,5.6 C5.06666667,6.11546577 5.48453423,6.53333333 6,6.53333333 C6.51546577,6.53333333 6.93333333,6.11546577 6.93333333,5.6 C6.93333333,5.08453423 6.51546577,4.66666667 6,4.66666667 Z M11.3777778,6.24444444 C11.0095879,6.24444444 10.7111111,5.94596761 10.7111111,5.57777778 C10.7111111,5.20958794 11.0095879,4.91111111 11.3777778,4.91111111 L14.1333333,4.91111111 C14.5015232,4.91111113 14.8,5.20958796 14.8,5.57777778 C14.8,5.9459676 14.5015232,6.24444443 14.1333333,6.24444444 L11.3777778,6.24444444 Z M16.5777778,7.57777778 C16.9459676,7.57777778 17.2444444,7.87625461 17.2444444,8.24444444 C17.2444444,8.61263428 16.9459676,8.91111111 16.5777778,8.91111111 L11.3777778,8.91111111 C11.0095879,8.91111111 10.7111111,8.61263428 10.7111111,8.24444444 C10.7111111,7.87625461 11.0095879,7.57777778 11.3777778,7.57777778 L16.5777778,7.57777778 Z"/>
  </defs>
  <g fill="none" fill-rule="evenodd" transform="translate(0 3)">
    <mask id="patientcard-b" fill="#fff">
      <use xlink:href="#patientcard-a"/>
    </mask>
    <use fill="#000" fill-rule="nonzero" xlink:href="#patientcard-a"/>
    <g fill="#006496" mask="url(#patientcard-b)">
      <rect width="20" height="20" transform="translate(0 -3)"/>
    </g>
  </g>
</svg>
