<svg xmlns="http://www.w3.org/2000/svg" xmlns:xlink="http://www.w3.org/1999/xlink" width="20" height="20" viewBox="0 0 20 20">
  <defs>
    <path id="print-a" d="M3.6,3.6 L14.4,3.6 L14.4,0 L3.6,0 L3.6,3.6 Z M15.3,8.1 C14.805,8.1 14.4,7.695 14.4,7.2 C14.4,6.705 14.805,6.3 15.3,6.3 C15.795,6.3 16.2,6.705 16.2,7.2 C16.2,7.695 15.795,8.1 15.3,8.1 Z M5.4,14.4 L12.6,14.4 L12.6,9.9 L5.4,9.9 L5.4,14.4 Z M15.3,4.5 L2.7,4.5 C1.206,4.5 0,5.706 0,7.2 L0,12.6 L3.6,12.6 L3.6,16.2 L14.4,16.2 L14.4,12.6 L18,12.6 L18,7.2 C18,5.706 16.794,4.5 15.3,4.5 Z"/>
  </defs>
  <g fill="none" fill-rule="evenodd" transform="translate(1 2)">
    <mask id="print-b" fill="#fff">
      <use xlink:href="#print-a"/>
    </mask>
    <use fill="#000" xlink:href="#print-a"/>
    <g fill="#006496" mask="url(#print-b)">
      <rect width="18" height="18" transform="translate(0 -.9)"/>
    </g>
  </g>
</svg>
