<svg xmlns="http://www.w3.org/2000/svg" xmlns:xlink="http://www.w3.org/1999/xlink" width="20" height="20" viewBox="0 0 20 20">
  <defs>
    <path id="share-a" d="M18.7781146,8.13449074 L14.528026,12.0692419 C14.0800347,12.4840278 13.3333333,12.1765046 13.3333333,11.5643808 L13.3333333,9.48211806 C9.06636285,9.51018519 7.26628125,10.4981192 8.47018229,14.4402488 C8.60249306,14.8734954 8.09104687,15.2089699 7.73215799,14.9416956 C6.58209028,14.0852141 5.54166667,12.4469907 5.54166667,10.7933738 C5.54166667,6.62853009 9.01247049,5.8020544 13.3333333,5.77855903 L13.3333333,3.69479167 C13.3333333,3.08211806 14.0805365,2.7755787 14.528026,3.18993056 L18.7781146,7.12476852 C19.0738438,7.39858218 19.0740799,7.8604456 18.7781146,8.13449074 Z M13.3333333,13.9701389 L13.3333333,15.962963 L3.88888889,15.962963 L3.88888889,6.7037037 L5.39161806,6.7037037 C5.48798888,6.70364358 5.5801662,6.66505245 5.64685417,6.59684606 C6.08817535,6.1463831 6.5982934,5.78984375 7.15247569,5.50668403 C7.48096528,5.33883102 7.35925,4.85185185 6.98882118,4.85185185 L3.41666667,4.85185185 C2.63425347,4.85185185 2,5.47366898 2,6.24074074 L2,16.4259259 C2,17.1929977 2.63425347,17.8148148 3.41666667,17.8148148 L13.8055556,17.8148148 C14.5879687,17.8148148 15.2222222,17.1929977 15.2222222,16.4259259 L15.2222222,13.8563079 C15.2222222,13.6164931 14.9802969,13.4493056 14.7496753,13.5292824 C14.4263388,13.641394 14.0800855,13.6749244 13.740625,13.6269965 C13.526059,13.5967303 13.3333333,13.75761 13.3333333,13.9701389 Z"/>
  </defs>
  <g fill="none" fill-rule="evenodd">
    <mask id="share-b" fill="#fff">
      <use xlink:href="#share-a"/>
    </mask>
    <use fill="#000" fill-rule="nonzero" xlink:href="#share-a"/>
    <g fill="#006496" mask="url(#share-b)">
      <rect width="43" height="42" transform="translate(-10.986 -10.47)"/>
    </g>
  </g>
</svg>
