<svg xmlns="http://www.w3.org/2000/svg" xmlns:xlink="http://www.w3.org/1999/xlink" width="20" height="20" viewBox="0 0 20 20">
  <defs>
    <path id="trash-a" d="M3.692,5.5 L16.112,5.5 L16.688,5.5 L16.688,4.37051793 L13.862,4.37051793 L5.942,4.37051793 L3.116,4.37051793 L3.116,5.5 L3.692,5.5 Z M6.5,9.44422311 C6.5,9.12151394 6.752,8.87051793 7.076,8.87051793 C7.382,8.87051793 7.634,9.12151394 7.634,9.44422311 L7.652,15.0557769 C7.652,15.3784861 7.4,15.6294821 7.094,15.6294821 C6.77,15.6294821 6.518,15.3784861 6.518,15.0557769 L6.5,9.44422311 Z M12.152,9.44422311 C12.152,9.12151394 12.404,8.87051793 12.71,8.87051793 C13.034,8.87051793 13.286,9.12151394 13.286,9.44422311 L13.304,15.0557769 C13.304,15.3784861 13.052,15.6294821 12.728,15.6294821 C12.422,15.6294821 12.17,15.3784861 12.17,15.0557769 L12.152,9.44422311 Z M9.326,9.44422311 C9.326,9.12151394 9.578,8.87051793 9.884,8.87051793 C10.208,8.87051793 10.46,9.12151394 10.46,9.44422311 L10.478,15.0557769 C10.478,15.3784861 10.226,15.6294821 9.92,15.6294821 C9.596,15.6294821 9.344,15.3784861 9.344,15.0557769 L9.326,9.44422311 Z M12.728,3.24103586 L12.728,2.68525896 C12.728,2.54183267 12.656,2.39840637 12.566,2.29083665 C12.458,2.18326693 12.314,2.12948207 12.17,2.12948207 L7.634,2.12948207 C7.49,2.12948207 7.346,2.18326693 7.238,2.29083665 C7.148,2.39840637 7.076,2.54183267 7.076,2.68525896 L7.076,3.24103586 L12.728,3.24103586 Z M5.942,3.24103586 L5.942,2.68525896 C5.942,2.21912351 6.14,1.80677291 6.446,1.50199203 C6.752,1.19721116 7.184,1 7.634,1 L12.17,1 C12.62,1 13.052,1.19721116 13.358,1.50199203 C13.664,1.80677291 13.862,2.21912351 13.862,2.68525896 L13.862,3.24103586 L17.246,3.24103586 C17.552,3.24103586 17.804,3.50996016 17.804,3.81474104 L17.804,6.05577689 C17.804,6.37848606 17.552,6.62948207 17.246,6.62948207 L16.688,6.62948207 L16.688,18.4442231 C16.688,18.749004 16.418,19 16.112,19 L3.692,19 C3.386,19 3.116,18.749004 3.116,18.4442231 L3.116,6.62948207 L2.558,6.62948207 C2.252,6.62948207 2,6.37848606 2,6.05577689 L2,3.81474104 C2,3.50996016 2.252,3.24103586 2.558,3.24103586 L5.942,3.24103586 Z M15.554,6.62948207 L4.25,6.62948207 L4.25,17.8705179 L15.554,17.8705179 L15.554,6.62948207 Z"/>
  </defs>
  <g fill="none" fill-rule="evenodd">
    <mask id="trash-b" fill="#fff">
      <use xlink:href="#trash-a"/>
    </mask>
    <use fill="#000" fill-rule="nonzero" xlink:href="#trash-a"/>
    <g fill="#FFF" mask="url(#trash-b)">
      <rect width="20" height="20"/>
    </g>
  </g>
</svg>
