<svg xmlns="http://www.w3.org/2000/svg" xmlns:xlink="http://www.w3.org/1999/xlink" width="20" height="20" viewBox="0 0 20 20">
  <defs>
    <path id="trendchart-a" d="M19.4632667,0.1116 C19.7699333,0.3156 19.8532667,0.728933333 19.6499333,1.0356 L13.8666,9.7396 L9.86593333,6.40626667 L1.86126667,18.4542667 C1.7326,18.6476 1.5206,18.7516 1.30526667,18.7516 C1.1786,18.7516 1.04993333,18.7156 0.9366,18.6402667 C0.629933333,18.4369333 0.5466,18.0229333 0.7506,17.7162667 L9.5786,4.43093333 L13.5779333,7.76426667 L18.5392667,0.298266667 C18.7426,-0.00906666667 19.1572667,-0.0924 19.4632667,0.1116 Z M19.2689333,10.4449333 C19.5756,10.6489333 19.6589333,11.0622667 19.4556,11.3689333 L15.0229333,18.0389333 L7.7336,11.9636 C7.45026667,11.7282667 7.41226667,11.3076 7.64826667,11.0249333 C7.8836,10.7422667 8.30426667,10.7042667 8.58693333,10.9396 L14.7356,16.0629333 L18.3449333,10.6316 C18.5489333,10.3242667 18.9622667,10.2409333 19.2689333,10.4449333 Z M4.0586,10.7518667 L0.6666,10.7518667 C0.2986,10.7518667 -6.66666665e-05,10.4532 -6.66666665e-05,10.0852 C-6.66666665e-05,9.7172 0.2986,9.41853333 0.6666,9.41853333 L4.0586,9.41853333 C4.4266,9.41853333 4.72526667,9.7172 4.72526667,10.0852 C4.72526667,10.4532 4.4266,10.7518667 4.0586,10.7518667 Z"/>
  </defs>
  <g fill="none" fill-rule="evenodd" transform="translate(0 1)">
    <mask id="trendchart-b" fill="#fff">
      <use xlink:href="#trendchart-a"/>
    </mask>
    <use fill="#4A4A4A" xlink:href="#trendchart-a"/>
    <g fill="#006496" mask="url(#trendchart-b)">
      <rect width="20" height="20" transform="translate(0 -1)"/>
    </g>
  </g>
</svg>
