<svg xmlns="http://www.w3.org/2000/svg" xmlns:xlink="http://www.w3.org/1999/xlink" width="20" height="20" viewBox="0 0 20 20">
  <defs>
    <path id="view-a" d="M10.9295775,15.2975956 C9.50061972,15.2975956 8.33802817,14.1273554 8.33802817,12.6889966 C8.33802817,11.2506378 9.50061972,10.0803976 10.9295775,10.0803976 C12.3585352,10.0803976 13.5211268,11.2506378 13.5211268,12.6889966 C13.5211268,14.1273554 12.3585352,15.2975956 10.9295775,15.2975956 Z M13.6971268,14.8332649 C14.1656338,14.2208113 14.4225352,13.4636371 14.4225352,12.6889966 C14.4225352,10.7502405 12.855662,9.17305886 10.9295775,9.17305886 C9.00349296,9.17305886 7.43661972,10.7502405 7.43661972,12.6889966 C7.43661972,14.6277527 9.00349296,16.2049343 10.9295775,16.2049343 C11.6989296,16.2049343 12.4513803,15.9463428 13.059831,15.4747534 L15.3101972,17.7401515 L15.9477183,17.0984362 L13.6971268,14.8332649 Z M8.11267606,4.99036323 L8.11267606,1.32199259 L11.7568451,4.99036323 L8.11267606,4.99036323 Z M8.07391549,0 L0,0 L0,17.693106 L9.01408451,17.693106 L9.01408451,16.7857672 L0.901408451,16.7857672 L0.901408451,0.907338769 L7.21126761,0.907338769 L7.21126761,5.897702 L12.1690141,5.897702 L12.1690141,8.50630096 L13.0704225,8.50630096 L13.0704225,5.02915196 L8.07391549,0 Z"/>
  </defs>
  <g fill="none" fill-rule="evenodd" transform="translate(2 1)">
    <mask id="view-b" fill="#fff">
      <use xlink:href="#view-a"/>
    </mask>
    <use fill="#000" xlink:href="#view-a"/>
    <g fill="#006496" mask="url(#view-b)">
      <rect width="50" height="50" transform="translate(-17.277 -16.164)"/>
    </g>
  </g>
</svg>
