<svg xmlns="http://www.w3.org/2000/svg" xmlns:xlink="http://www.w3.org/1999/xlink" width="20" height="17" viewBox="0 0 20 17">
  <defs>
    <path id="3-appointments-a" d="M16.7584379,6.46772247 L17.4217788,6.46772247 L17.4217788,4.93875418 L18.9509959,4.93875418 L18.9509959,4.27541334 L17.42153,4.27541334 L17.42153,2.74644506 L16.7581891,2.74644506 L16.7581891,4.27541334 L15.2294697,4.27541334 L15.2294697,4.93875418 L16.7584379,4.93875418 L16.7584379,6.46772247 Z M18.1682238,7.21416753 L16.0119929,7.21416753 L16.0119929,5.68519924 L14.4830246,5.68519924 L14.4830246,3.52896829 L16.0117441,3.52896829 L16.0117441,2 L18.167975,2 L18.167975,3.52896829 L19.6971921,3.52896829 L19.6974409,5.68519924 L18.1682238,5.68519924 L18.1682238,7.21416753 Z M2.70860029,8.75383486 C2.46202461,8.75383486 2.26098207,8.95462858 2.26098207,9.20145308 C2.26098207,9.44827758 2.46202461,9.6490713 2.70860029,9.6490713 C2.9556736,9.6490713 3.15646732,9.44827758 3.15646732,9.20145308 C3.15646732,8.95462858 2.9556736,8.75383486 2.70860029,8.75383486 Z M2.70860029,10.3955164 C2.05023575,10.3955164 1.51453702,9.85981762 1.51453702,9.20145308 C1.51453702,8.54308854 2.05023575,8.00738981 2.70860029,8.00738981 C3.36721365,8.00738981 3.90291238,8.54308854 3.90291238,9.20145308 C3.90291238,9.85981762 3.36721365,10.3955164 2.70860029,10.3955164 Z M5.86083776,8.75383486 C5.61401326,8.75383486 5.41321954,8.95462858 5.41321954,9.20145308 C5.41321954,9.44827758 5.61401326,9.6490713 5.86083776,9.6490713 C6.10766226,9.6490713 6.30845598,9.44827758 6.30845598,9.20145308 C6.30845598,8.95462858 6.10766226,8.75383486 5.86083776,8.75383486 Z M5.86083776,10.3955164 C5.20247322,10.3955164 4.66677449,9.85981762 4.66677449,9.20145308 C4.66677449,8.54308854 5.20247322,8.00738981 5.86083776,8.00738981 C6.51945111,8.00738981 7.05490103,8.54308854 7.05490103,9.20145308 C7.05490103,9.85981762 6.51945111,10.3955164 5.86083776,10.3955164 Z M9.01307523,8.75383486 C8.76625073,8.75383486 8.5652082,8.95462858 8.5652082,9.20145308 C8.5652082,9.44827758 8.76625073,9.6490713 9.01307523,9.6490713 C9.25989973,9.6490713 9.46069345,9.44827758 9.46069345,9.20145308 C9.46069345,8.95462858 9.25989973,8.75383486 9.01307523,8.75383486 Z M9.01307523,10.3955164 C8.35471069,10.3955164 7.81876314,9.85981762 7.81876314,9.20145308 C7.81876314,8.54308854 8.35471069,8.00738981 9.01307523,8.00738981 C9.67168858,8.00738981 10.2073873,8.54308854 10.2073873,9.20145308 C10.2073873,9.85981762 9.67168858,10.3955164 9.01307523,10.3955164 Z M2.70860029,12.4315696 C2.46202461,12.4315696 2.26098207,12.6323634 2.26098207,12.8791879 C2.26098207,13.1260124 2.46202461,13.3268061 2.70860029,13.3268061 C2.9556736,13.3268061 3.15646732,13.1260124 3.15646732,12.8791879 C3.15646732,12.6323634 2.9556736,12.4315696 2.70860029,12.4315696 Z M2.70860029,14.0732511 C2.05023575,14.0732511 1.51453702,13.5375524 1.51453702,12.8791879 C1.51453702,12.2208233 2.05023575,11.6851246 2.70860029,11.6851246 C3.36721365,11.6851246 3.90291238,12.2208233 3.90291238,12.8791879 C3.90291238,13.5375524 3.36721365,14.0732511 2.70860029,14.0732511 Z M6.12358642,12.4315696 C5.87701074,12.4315696 5.6759682,12.6323634 5.6759682,12.8791879 C5.6759682,13.1260124 5.87701074,13.3268061 6.12358642,13.3268061 C6.37041092,13.3268061 6.57120464,13.1260124 6.57120464,12.8791879 C6.57120464,12.6323634 6.37041092,12.4315696 6.12358642,12.4315696 Z M6.12358642,14.0732511 C5.46522188,14.0732511 4.92952315,13.5375524 4.92952315,12.8791879 C4.92952315,12.2208233 5.46522188,11.6851246 6.12358642,11.6851246 C6.78170214,11.6851246 7.31740088,12.2208233 7.31764969,12.8789391 C7.31764969,13.5375524 6.78195096,14.0732511 6.12358642,14.0732511 Z M17.2884139,14.4651348 C17.237158,14.4651348 17.1851557,14.4546846 17.1356415,14.4322912 L14.3066147,13.1596024 L14.3066147,9.54382255 C14.3066147,9.33755489 14.4735696,9.17060002 14.6798373,9.17060002 C14.8858561,9.17060002 15.0530598,9.33755489 15.0530598,9.54382255 L15.0530598,12.6769013 L17.441684,13.7512845 C17.6297881,13.8358816 17.7136388,14.0570782 17.6290417,14.2449335 C17.5668379,14.3830258 17.4307361,14.4651348 17.2884139,14.4651348 Z M0.746445055,6.53763949 L12.9259402,6.53763949 L12.9259402,5.85389582 C12.9259402,5.1908038 12.3862604,4.65112402 11.7229196,4.65112402 L10.2073873,4.65112402 L10.2073873,5.05619487 C10.2073873,5.26246252 10.0401836,5.4294174 9.83391598,5.4294174 C9.62789714,5.4294174 9.46069345,5.26246252 9.46069345,5.05619487 L9.46069345,4.65112402 L7.05490103,4.65112402 L7.05490103,5.05619487 C7.05490103,5.26246252 6.88794616,5.4294174 6.68167851,5.4294174 C6.47565967,5.4294174 6.30845598,5.26246252 6.30845598,5.05619487 L6.30845598,4.65112402 L3.90291238,4.65112402 L3.90291238,5.05619487 C3.90291238,5.26246252 3.7359575,5.4294174 3.52968985,5.4294174 C3.32367102,5.4294174 3.15646732,5.26246252 3.15646732,5.05619487 L3.15646732,4.65112402 L1.94921685,4.65112402 C1.28612483,4.65112402 0.746445055,5.1908038 0.746445055,5.85389582 L0.746445055,6.53763949 Z M0.746445055,7.28408455 L0.746445055,14.1911895 C0.746445055,14.8542815 1.28612483,15.3939613 1.94921685,15.3939613 L9.9717595,15.3939613 C9.58111992,14.6539854 9.35967455,13.8114977 9.35967455,12.9182518 C9.35967455,10.599047 10.8515694,8.62146527 12.9259402,7.89517423 L12.9259402,7.28408455 L0.746445055,7.28408455 Z M13.3807741,8.5323895 C11.4892823,9.09346736 10.1061196,10.8473644 10.1061196,12.9182518 C10.1061196,15.4402409 12.1578482,17.4919695 14.6798373,17.4919695 C17.2018263,17.4919695 19.2535549,15.4402409 19.2535549,12.9182518 C19.2535549,10.3962628 17.2018263,8.34453416 14.6798373,8.34453416 C14.2451574,8.34453416 13.8246601,8.40549384 13.4260584,8.5192023 C13.4113783,8.52442741 13.3962006,8.52890608 13.3807741,8.5323895 Z M14.6798373,18.2384146 C12.9565445,18.2384146 11.4218534,17.414588 10.4492355,16.1404063 L1.94921685,16.1404063 C0.87458479,16.1404063 0,15.2658215 0,14.1911895 L0,5.85389582 C0,4.77901494 0.87458479,3.90467897 1.94921685,3.90467897 L3.15646732,3.90467897 L3.15646732,3.07438325 C3.15646732,2.8681156 3.32367102,2.70116072 3.52968985,2.70116072 C3.7359575,2.70116072 3.90291238,2.8681156 3.90291238,3.07438325 L3.90291238,3.90467897 L6.30845598,3.90467897 L6.30845598,3.07438325 C6.30845598,2.8681156 6.47565967,2.70116072 6.68167851,2.70116072 C6.88794616,2.70116072 7.05490103,2.8681156 7.05490103,3.07438325 L7.05490103,3.90467897 L9.46069345,3.90467897 L9.46069345,3.07438325 C9.46069345,2.8681156 9.62789714,2.70116072 9.83391598,2.70116072 C10.0401836,2.70116072 10.2073873,2.8681156 10.2073873,3.07438325 L10.2073873,3.90467897 L11.7229196,3.90467897 C12.7978005,3.90467897 13.6723853,4.77901494 13.6723853,5.85389582 L13.6723853,7.69363407 C13.9985818,7.63093268 14.3354773,7.5980891 14.6798373,7.5980891 C17.6133663,7.5980891 20,9.98472276 20,12.9182518 C20,15.8517809 17.6133663,18.2384146 14.6798373,18.2384146 Z"/>
  </defs>
  <g fill="none" fill-rule="evenodd" transform="translate(0 -2)">
    <mask id="3-appointments-b" fill="#fff">
      <use xlink:href="#3-appointments-a"/>
    </mask>
    <use fill="#FFF" xlink:href="#3-appointments-a"/>
    <g fill="#FFF" mask="url(#3-appointments-b)">
      <rect width="20" height="20"/>
    </g>
  </g>
</svg>
