<?xml version="1.0" encoding="UTF-8"?>
<svg width="20px" height="20px" viewBox="0 0 20 20" version="1.1" xmlns="http://www.w3.org/2000/svg" xmlns:xlink="http://www.w3.org/1999/xlink">
    <!-- Generator: sketchtool 49.1 (51147) - http://www.bohemiancoding.com/sketch -->
    <title>38E4BA72-B237-4C50-B11B-B0DA7B1656D8</title>
    <desc>Created with sketchtool.</desc>
    <defs>
        <path d="M19.2896667,16.5191052 C19.5906667,16.5191052 19.8333333,16.7361052 19.8333333,17.0021052 C19.8333333,17.2704385 19.5906667,17.4862719 19.2896667,17.4862719 L0.546,17.4862719 C0.243833333,17.4862719 0,17.2704385 0,17.0021052 C0,16.7361052 0.243833333,16.5191052 0.546,16.5191052 L19.2896667,16.5191052 Z M15.3766667,13.4224219 L15.3766667,4.07042187 L12.992,6.42358854 L12.0633333,5.49492187 L16.0276667,1.53058854 L19.9908333,5.49492187 L19.0621667,6.42358854 L16.6775,4.07042187 L16.6775,13.4224219 L15.3766667,13.4224219 Z M2.69826667,7.00237187 L2.04493333,6.37587187 C1.8046,6.14837187 1.72993333,5.7972052 1.85593333,5.49153854 C1.93293333,5.29087187 2.0916,5.13337187 2.29343333,5.0587052 L2.29343333,4.76587187 C2.2911,4.74953854 2.2911,4.7332052 2.29343333,4.7157052 C2.30743333,4.5792052 2.42876667,4.48003854 2.56526667,4.49403854 C2.70176667,4.50687187 2.80093333,4.62937187 2.7881,4.76587187 L2.7881,5.06687187 C2.85926667,5.09137187 2.92693333,5.1287052 2.98643333,5.17537187 C3.05876667,5.23253854 3.11826667,5.30253854 3.16493333,5.38187187 C3.2081,5.48453854 3.1766,5.60353854 3.0891,5.67237187 C2.98176667,5.75753854 2.82543333,5.73887187 2.74026667,5.63037187 C2.72393333,5.60237187 2.70293333,5.57903854 2.67843333,5.55803854 C2.63993333,5.5277052 2.59093333,5.51137187 2.54193333,5.51137187 C2.44276667,5.51487187 2.35526667,5.57553854 2.31793333,5.6677052 C2.26776667,5.78437187 2.2946,5.9197052 2.38443333,6.00837187 L3.03893333,6.63487187 C3.27693333,6.86237187 3.35276667,7.21237187 3.22793333,7.51687187 C3.1521,7.7187052 2.99226667,7.87737187 2.79043333,7.95203854 L2.79043333,8.24487187 C2.79043333,8.38253854 2.67843333,8.49337187 2.54193333,8.49337187 C2.40426667,8.49337187 2.29343333,8.38253854 2.29343333,8.24487187 L2.29343333,7.95203854 C2.05076667,7.86803854 1.86876667,7.66503854 1.8116,7.41537187 C1.77776667,7.28237187 1.85826667,7.14703854 1.99126667,7.1132052 C2.12426667,7.07937187 2.2596,7.15987187 2.29343333,7.29287187 C2.31443333,7.4142052 2.41943333,7.5017052 2.54193333,7.49937187 C2.6411,7.49703854 2.7286,7.4352052 2.76593333,7.34303854 C2.81493333,7.22637187 2.7881,7.09103854 2.69826667,7.00237187 Z M6.76678333,12.7183385 C6.90445,12.7183385 7.01528333,12.8303385 7.01528333,12.9668385 C7.01528333,13.1045052 6.90445,13.2153385 6.76678333,13.2153385 L5.77278333,13.2153385 C5.63511667,13.2153385 5.52428333,13.1045052 5.52428333,12.9668385 C5.52428333,12.8303385 5.63511667,12.7183385 5.77278333,12.7183385 L6.76678333,12.7183385 Z M6.76678333,11.4758385 C6.90445,11.4758385 7.01528333,11.5866719 7.01528333,11.7243385 C7.01528333,11.8620052 6.90445,11.9728385 6.76678333,11.9728385 L6.02128333,11.9728385 C5.88361667,11.9728385 5.77278333,11.8620052 5.77278333,11.7243385 C5.77278333,11.5866719 5.88361667,11.4758385 6.02128333,11.4758385 L6.76678333,11.4758385 Z M6.76678333,10.4818385 C6.90445,10.4818385 7.01528333,10.5926719 7.01528333,10.7303385 C7.01528333,10.8680052 6.90445,10.9788385 6.76678333,10.9788385 L6.02128333,10.9788385 C5.88361667,10.9788385 5.77278333,10.8680052 5.77278333,10.7303385 C5.77278333,10.5926719 5.88361667,10.4818385 6.02128333,10.4818385 L6.76678333,10.4818385 Z M6.02105,9.98448854 C5.88338333,9.98448854 5.77255,9.8736552 5.77255,9.73598854 C5.77255,9.59832187 5.88338333,9.48748854 6.02105,9.48748854 L6.76655,9.48748854 C6.90421667,9.48748854 7.01505,9.59832187 7.01505,9.73598854 C7.01505,9.8736552 6.90421667,9.98448854 6.76655,9.98448854 L6.02105,9.98448854 Z M5.02705,11.4758385 C5.16471667,11.4758385 5.27555,11.5866719 5.27555,11.7243385 C5.27555,11.8620052 5.16471667,11.9728385 5.02705,11.9728385 L2.04505,11.9728385 C1.90738333,11.9728385 1.79538333,11.8620052 1.79538333,11.7243385 C1.79538333,11.5866719 1.90738333,11.4758385 2.04505,11.4758385 L5.02705,11.4758385 Z M5.02705,10.4818385 C5.16471667,10.4818385 5.27555,10.5926719 5.27555,10.7303385 C5.27555,10.8680052 5.16471667,10.9788385 5.02705,10.9788385 L2.04505,10.9788385 C1.90738333,10.9788385 1.79538333,10.8680052 1.79538333,10.7303385 C1.79538333,10.5926719 1.90738333,10.4818385 2.04505,10.4818385 L5.02705,10.4818385 Z M5.02705,9.48772187 C5.16471667,9.48772187 5.27555,9.5985552 5.27555,9.73622187 C5.27555,9.87388854 5.16471667,9.98472187 5.02705,9.98472187 L2.04505,9.98472187 C1.90738333,9.98472187 1.79538333,9.87388854 1.79538333,9.73622187 C1.79538333,9.5985552 1.90738333,9.48772187 2.04505,9.48772187 L5.02705,9.48772187 Z M10.1750833,10.6897385 L9.83791667,11.0152385 C9.83791667,9.7669052 9.83791667,7.7544052 9.83791667,4.9194052 C9.84841667,4.8249052 9.82275,4.7479052 9.76791667,4.69307187 L8.55691667,3.48207187 L10.1750833,3.48207187 L10.1750833,10.6897385 Z M9.34091667,10.8647385 L9.34091667,11.4702385 L9.34091667,12.3254052 L9.00375,12.6509052 C9.00375,11.4025719 9.00375,9.39123854 9.00375,6.55507187 C9.01308333,6.46057187 8.98858333,6.38357187 8.93375,6.32873854 L7.72275,5.11773854 L9.34091667,5.11773854 L9.34091667,10.8647385 Z M8.50675,12.5004052 L8.50675,13.1070719 L8.50675,13.9610719 L8.04941667,14.4032385 L7.48708333,14.0065719 C7.40191667,13.9459052 7.28758333,13.9459052 7.20125,14.0065719 L6.64008333,14.4009052 L6.07775,14.0065719 C5.99258333,13.9459052 5.87825,13.9459052 5.79308333,14.0065719 L5.23075,14.4009052 L4.67191667,14.0065719 C4.58558333,13.9459052 4.47125,13.9459052 4.38608333,14.0065719 L3.82375,14.4009052 L3.26258333,14.0065719 C3.17625,13.9459052 3.06191667,13.9459052 2.97675,14.0065719 L2.41558333,14.4032385 L1.85558333,14.0065719 C1.77041667,13.9459052 1.65608333,13.9459052 1.56975,14.0065719 L1.00858333,14.4032385 L0.553583333,13.9610719 L0.553583333,4.68373854 C0.550083333,4.39907187 0.68775,4.15523854 0.89075,3.98723854 C1.02958333,3.8729052 1.19758333,3.79823854 1.38775,3.78423854 C1.40758333,3.7819052 1.42508333,3.7714052 1.44608333,3.7714052 L1.72491667,3.7714052 L2.22191667,3.7714052 L5.52358333,3.7714052 L5.52358333,6.5049052 C5.52358333,6.64257187 5.63441667,6.7534052 5.77325,6.7534052 L8.50675,6.7534052 L8.50675,12.5004052 Z M1.38775,3.04807187 C1.38425,2.7634052 1.52191667,2.51957187 1.72491667,2.35157187 C1.86375,2.23723854 2.03291667,2.16257187 2.22191667,2.14857187 C2.24291667,2.14623854 2.25925,2.13573854 2.28025,2.13573854 L6.35891667,2.13573854 L6.35891667,3.7539052 L5.95175,3.34673854 C5.89575,3.28957187 5.81525,3.26157187 5.73475,3.2744052 L2.22191667,3.2744052 L1.72491667,3.2744052 L1.44608333,3.2744052 C1.42508333,3.2744052 1.40758333,3.2849052 1.38775,3.28607187 L1.38775,3.04807187 Z M2.22191667,1.4124052 C2.21725,0.914238535 2.61625,0.505905202 3.11441667,0.500071869 L7.19308333,0.500071869 L7.19308333,2.11707187 L6.78591667,1.71107187 C6.72991667,1.65273854 6.64941667,1.6259052 6.57008333,1.63873854 L2.28025,1.63873854 C2.25925,1.63873854 2.24291667,1.64923854 2.22191667,1.6504052 L2.22191667,1.4124052 Z M8.15558333,6.2564052 L6.02058333,6.2564052 L6.02058333,4.12257187 L8.15558333,6.2564052 Z M6.85591667,4.24973854 L6.85591667,2.48573854 L7.19308333,2.82407187 L7.85108333,3.48207187 L8.98975,4.62073854 L7.22575,4.62073854 L6.85591667,4.24973854 Z M7.69008333,0.850071869 L9.82508333,2.98507187 L8.06108333,2.98507187 L7.69008333,2.61523854 L7.69008333,0.850071869 Z M10.6720833,3.28373854 C10.6825833,3.18923854 10.6569167,3.11223854 10.60325,3.0574052 L7.62008333,0.0754052022 C7.56408333,0.0182385355 7.48358333,-0.0097614645 7.40425,0.00307186883 L3.11441667,0.00307186883 C2.34208333,0.00890520216 1.71908333,0.638905202 1.72491667,1.4124052 L1.72491667,1.76007187 C1.23141667,1.9794052 0.88725,2.4729052 0.89075,3.04807187 L0.89075,3.39573854 C0.39725,3.61507187 0.0519166667,4.10857187 0.0565833333,4.68373854 L0.0565833333,14.1279052 C0.0390833333,14.2504052 0.0775833333,14.3472385 0.15575,14.4032385 L0.85925,14.9002385 C0.944416667,14.9609052 1.05991667,14.9609052 1.14508333,14.9002385 L1.70391667,14.5059052 L2.26275,14.9002385 C2.34908333,14.9609052 2.46341667,14.9609052 2.54858333,14.9002385 L3.10858333,14.5059052 L3.66975,14.9002385 C3.75608333,14.9609052 3.87041667,14.9609052 3.95558333,14.9002385 L4.52958333,14.5129052 L5.08958333,14.9084052 C5.17475,14.9679052 5.28908333,14.9679052 5.37541667,14.9084052 L5.93658333,14.5129052 L6.49775,14.9084052 C6.58408333,14.9679052 6.69841667,14.9679052 6.78358333,14.9084052 L7.34591667,14.5129052 L7.90708333,14.9084052 C7.99341667,14.9679052 8.10775,14.9679052 8.19291667,14.9084052 L8.89875,14.4114052 C8.98391667,14.3542385 9.02475,14.2515719 9.00375,14.1524052 C9.00375,14.1512385 9.00375,13.8490719 9.00375,13.2797385 C9.01075,13.2762385 9.02008333,13.2774052 9.02825,13.2727385 L9.73408333,12.7757385 C9.81808333,12.7185719 9.85891667,12.6159052 9.83791667,12.5167385 L9.83791667,11.6440719 C9.84608333,11.6394052 9.85541667,11.6417385 9.86125,11.6370719 L10.5670833,11.1400719 C10.65225,11.0829052 10.6930833,10.9802385 10.6720833,10.8810719 L10.6720833,3.28373854 Z" id="path-1"></path>
    </defs>
    <g id="Symbols" stroke="none" stroke-width="1" fill="none" fill-rule="evenodd">
        <g id="👀icon/menu/claims">
            <g id="🎨color/white" transform="translate(0.000000, 1.000000)">
                <mask id="mask-2" fill="white">
                    <use xlink:href="#path-1"></use>
                </mask>
                <use id="Mask" fill="#FFF" xlink:href="#path-1"></use>
                <g id="🎨color/fill/white" mask="url(#mask-2)" fill="#FFFFFF">
                    <g transform="translate(-1.166667, -3.500000)" id="Base">
                        <rect x="0" y="0" width="23" height="23"></rect>
                    </g>
                </g>
            </g>
        </g>
    </g>
</svg>