<svg xmlns="http://www.w3.org/2000/svg" xmlns:xlink="http://www.w3.org/1999/xlink" width="20" height="18" viewBox="0 0 20 18">
  <defs>
    <path id="6-communications-a" d="M0.930232558,1.18604651 C0.930232558,1.04651163 1.02325581,0.953488372 1.1627907,0.953488372 L18.8372093,0.953488372 C18.9767442,0.953488372 19.0697674,1.04651163 19.0697674,1.18604651 L19.0697674,13.0465116 C19.0697674,13.1860465 18.9767442,13.2790698 18.8372093,13.2790698 L12.3255814,13.2790698 C12.1627907,13.2790698 12.0232558,13.3488372 11.9302326,13.4883721 L10,16.5581395 L8.06976744,13.5116279 C7.97674419,13.372093 7.8372093,13.3023256 7.6744186,13.3023256 L1.1627907,13.3023256 C1.02325581,13.3023256 0.930232558,13.2093023 0.930232558,13.0697674 L0.930232558,1.18604651 Z M1.1627907,14.1860465 L7.39534884,14.1860465 L9.30232558,17.2093023 C9.44186047,17.4418605 9.69767442,17.5813953 9.97674419,17.5813953 C10.255814,17.5813953 10.5116279,17.4418605 10.6511628,17.2093023 L12.5581395,14.1860465 L18.8372093,14.1860465 C19.4883721,14.1860465 20,13.6744186 20,13.0232558 L20,1.1627907 C20,0.511627907 19.4883721,0 18.8372093,0 L1.1627907,0 C0.511627907,0 0,0.511627907 0,1.1627907 L0,13.0232558 C0,13.6976744 0.534883721,14.1860465 1.1627907,14.1860465 Z M5.11627907,6.2557907 C5.62790698,6.2557907 6.04651163,6.67439535 6.04651163,7.18602326 C6.04651163,7.69765116 5.62790698,8.11625581 5.11627907,8.11625581 C4.60465116,8.11625581 4.18604651,7.69765116 4.18604651,7.18602326 C4.18604651,6.67439535 4.60465116,6.2557907 5.11627907,6.2557907 M5.11627907,9.04648837 C6.13953488,9.04648837 6.97674419,8.20927907 6.97674419,7.18602326 C6.97674419,6.16276744 6.13953488,5.32555814 5.11627907,5.32555814 C4.09302326,5.32555814 3.25581395,6.16276744 3.25581395,7.18602326 C3.25581395,8.20927907 4.09302326,9.04648837 5.11627907,9.04648837 M10,6.2557907 C10.5116279,6.2557907 10.9302326,6.67439535 10.9302326,7.18602326 C10.9302326,7.69765116 10.5116279,8.11625581 10,8.11625581 C9.48837209,8.11625581 9.06976744,7.69765116 9.06976744,7.18602326 C9.06976744,6.67439535 9.48837209,6.2557907 10,6.2557907 M10,9.04648837 C11.0232558,9.04648837 11.8604651,8.20927907 11.8604651,7.18602326 C11.8604651,6.16276744 11.0232558,5.32555814 10,5.32555814 C8.97674419,5.32555814 8.13953488,6.16276744 8.13953488,7.18602326 C8.13953488,8.20927907 8.97674419,9.04648837 10,9.04648837 M14.8837209,6.2557907 C15.3953488,6.2557907 15.8139535,6.67439535 15.8139535,7.18602326 C15.8139535,7.69765116 15.3953488,8.11625581 14.8837209,8.11625581 C14.372093,8.11625581 13.9534884,7.69765116 13.9534884,7.18602326 C13.9534884,6.67439535 14.372093,6.2557907 14.8837209,6.2557907 M14.8837209,9.04648837 C15.9069767,9.04648837 16.744186,8.20927907 16.744186,7.18602326 C16.744186,6.16276744 15.9069767,5.32555814 14.8837209,5.32555814 C13.8604651,5.32555814 13.0232558,6.16276744 13.0232558,7.18602326 C13.0232558,8.20927907 13.8604651,9.04648837 14.8837209,9.04648837"/>
  </defs>
  <g fill="none" fill-rule="evenodd">
    <mask id="6-communications-b" fill="#fff">
      <use xlink:href="#6-communications-a"/>
    </mask>
    <use fill="#FFF" xlink:href="#6-communications-a"/>
    <g fill="#FFF" mask="url(#6-communications-b)">
      <rect width="20" height="20" transform="translate(0 -1)"/>
    </g>
  </g>
</svg>
