<svg xmlns="http://www.w3.org/2000/svg" xmlns:xlink="http://www.w3.org/1999/xlink" width="19" height="20" viewBox="0 0 19 20">
  <defs>
    <path id="5-contacts-a" d="M13.5169268,13.1951463 L13.5169268,14.056122 L6.75863415,14.056122 L6.75863415,13.1951463 C6.76253659,11.8344146 7.86619512,10.7331951 9.22668293,10.7317317 L11.0437561,10.7317317 C12.406439,10.7305122 13.5127805,11.8324634 13.5169268,13.1951463 M8.6537561,7.42441463 C8.6537561,6.60539024 9.31741463,5.9414878 10.1366829,5.9414878 C10.9554634,5.9414878 11.6196098,6.60539024 11.6196098,7.42441463 C11.6196098,8.24343902 10.9554634,8.90734146 10.1366829,8.90734146 C9.31814634,8.90612195 8.65497561,8.24295122 8.6537561,7.42441463 M5.78302439,13.1951463 C5.78839024,11.296122 7.32790244,9.75880488 9.22668293,9.75612195 L9.3535122,9.75612195 C8.62473171,9.511 8.05278049,8.93880488 7.80765854,8.21026829 C7.3744878,6.92319512 8.06668293,5.52904878 9.3535122,5.09587805 C10.6405854,4.66295122 12.0347317,5.35490244 12.4679024,6.64197561 C12.9010732,7.92880488 12.208878,9.32319512 10.9218049,9.75612195 L11.0437561,9.75612195 C12.9447317,9.75612195 14.4874146,11.2944146 14.4925366,13.1951463 L14.4925366,14.5439268 C14.4925366,14.8131951 14.274,15.0317317 14.0047317,15.0317317 L6.27082927,15.0317317 C6.00131707,15.0317317 5.78302439,14.8131951 5.78302439,14.5439268 L5.78302439,13.1951463 Z M1.59995122,12.1951707 L1.59995122,7.80492683 L2.57556098,7.80492683 L2.57556098,12.1951707 L1.59995122,12.1951707 Z M18.6731951,2.92682927 L18.6731951,17.0731707 C18.6731951,18.6897561 17.3627073,20 15.7463659,20 L3.06343902,20 C2.25514634,20 1.60002439,19.3446341 1.60002439,18.5365854 L1.60002439,15.8536585 L2.57563415,15.8536585 L2.57563415,18.5365854 C2.57563415,18.8058537 2.79392683,19.0243902 3.06343902,19.0243902 L15.7463659,19.0243902 C16.8239268,19.0243902 17.6975854,18.1509756 17.6975854,17.0731707 L17.6975854,2.92682927 C17.6975854,1.84926829 16.8239268,0.975609756 15.7463659,0.975609756 L3.06343902,0.975609756 C2.79392683,0.975609756 2.57563415,1.19414634 2.57563415,1.46341463 L2.57563415,4.14634146 L1.60002439,4.14634146 L1.60002439,1.46341463 C1.60002439,0.655365854 2.25514634,0 3.06343902,0 L15.7463659,0 C17.3627073,0 18.6731951,1.3104878 18.6731951,2.92682927 Z M0,13.9731707 C0,13.7039024 0.218292683,13.4853659 0.487804878,13.4853659 L3.7804878,13.4853659 C4.0497561,13.4853659 4.26829268,13.7039024 4.26829268,13.9731707 C4.26829268,14.242439 4.0497561,14.4609756 3.7804878,14.4609756 L0.487804878,14.4609756 C0.218292683,14.4609756 0,14.242439 0,13.9731707 Z M0,6.02692683 C0,5.75741463 0.218292683,5.53912195 0.487804878,5.53912195 L3.53658537,5.53912195 C3.80585366,5.53912195 4.02439024,5.75741463 4.02439024,6.02692683 C4.02439024,6.29619512 3.80585366,6.51473171 3.53658537,6.51473171 L0.487804878,6.51473171 C0.218292683,6.51473171 0,6.29619512 0,6.02692683 Z"/>
  </defs>
  <g fill="none" fill-rule="evenodd">
    <mask id="5-contacts-b" fill="#fff">
      <use xlink:href="#5-contacts-a"/>
    </mask>
    <use fill="#FFF" xlink:href="#5-contacts-a"/>
    <g fill="#FFF" mask="url(#5-contacts-b)">
      <rect width="20" height="20" transform="translate(-1)"/>
    </g>
  </g>
</svg>
