<svg xmlns="http://www.w3.org/2000/svg" xmlns:xlink="http://www.w3.org/1999/xlink" width="20" height="20" viewBox="0 0 20 20">
  <defs>
    <path id="1-dashboard-a" d="M1,11.0962199 L8.33797909,11.0962199 L8.33797909,1 L1,1 L1,11.0962199 Z M0,12.0962199 L0,1.77635684e-15 L9.33797909,1.77635684e-15 L9.33797909,12.0962199 L0,12.0962199 Z M1.34843206,14.7457045 L1.34843206,18.6563574 L7.98954704,18.6563574 L7.98954704,14.7457045 L1.34843206,14.7457045 Z M0.348432056,13.7457045 L8.98954704,13.7457045 L8.98954704,19.6563574 L0.348432056,19.6563574 L0.348432056,13.7457045 Z M11.6620209,1 L11.6620209,5.59793814 L19,5.59793814 L19,1 L11.6620209,1 Z M10.6620209,1.77635684e-15 L20,1.77635684e-15 L20,6.59793814 L10.6620209,6.59793814 L10.6620209,1.77635684e-15 Z M19,19 L19,8.90378007 L11.6620209,8.90378007 L11.6620209,19 L19,19 Z M10.6620209,20 L10.6620209,7.90378007 L20,7.90378007 L20,20 L10.6620209,20 Z"/>
  </defs>
  <g fill="none" fill-rule="evenodd">
    <mask id="1-dashboard-b" fill="#fff">
      <use xlink:href="#1-dashboard-a"/>
    </mask>
    <use fill="#FFF" fill-rule="nonzero" xlink:href="#1-dashboard-a"/>
    <g fill="#FFF" mask="url(#1-dashboard-b)">
      <rect width="20" height="20"/>
    </g>
  </g>
</svg>
