<svg xmlns="http://www.w3.org/2000/svg" xmlns:xlink="http://www.w3.org/1999/xlink" viewBox="0 0 16 20">
  
    <path id="5-invoices-a" d="M10.517382,10.6423734 C10.7526789,10.6423734 10.9428737,10.8329937 10.9428737,11.0678651 C10.9428737,11.3031621 10.7526789,11.4933569 10.517382,11.4933569 L5.41148139,11.4933569 C5.17660996,11.4933569 4.98598967,11.3031621 4.98598967,11.0678651 C4.98598967,10.8329937 5.17660996,10.6423734 5.41148139,10.6423734 L10.517382,10.6423734 Z M10.517382,12.3443403 C10.7526789,12.3443403 10.9428737,12.5349606 10.9428737,12.769832 C10.9428737,13.0051289 10.7526789,13.1953237 10.517382,13.1953237 L5.41148139,13.1953237 C5.17660996,13.1953237 4.98598967,13.0051289 4.98598967,12.769832 C4.98598967,12.5349606 5.17660996,12.3443403 5.41148139,12.3443403 L10.517382,12.3443403 Z M10.517382,14.0463072 C10.7526789,14.0463072 10.9428737,14.2369275 10.9428737,14.4717989 C10.9428737,14.7070958 10.7526789,14.8972906 10.517382,14.8972906 L5.41148139,14.8972906 C5.17660996,14.8972906 4.98598967,14.7070958 4.98598967,14.4717989 C4.98598967,14.2369275 5.17660996,14.0463072 5.41148139,14.0463072 L10.517382,14.0463072 Z M12.2193488,11.4933569 C11.9840519,11.4933569 11.7938571,11.3031621 11.7938571,11.0678651 C11.7938571,10.8329937 11.9840519,10.6423734 12.2193488,10.6423734 L13.495824,10.6423734 C13.7311209,10.6423734 13.9213157,10.8329937 13.9213157,11.0678651 C13.9213157,11.3031621 13.7311209,11.4933569 13.495824,11.4933569 L12.2193488,11.4933569 Z M13.495824,12.3443403 C13.7311209,12.3443403 13.9213157,12.5349606 13.9213157,12.769832 C13.9213157,13.0051289 13.7311209,13.1953237 13.495824,13.1953237 L12.2193488,13.1953237 C11.9840519,13.1953237 11.7938571,13.0051289 11.7938571,12.769832 C11.7938571,12.5349606 11.9840519,12.3443403 12.2193488,12.3443403 L13.495824,12.3443403 Z M13.495824,14.0463072 C13.7311209,14.0463072 13.9213157,14.2369275 13.9213157,14.4717989 C13.9213157,14.7070958 13.7311209,14.8972906 13.495824,14.8972906 L12.2193488,14.8972906 C11.9840519,14.8972906 11.7938571,14.7070958 11.7938571,14.4717989 C11.7938571,14.2369275 11.9840519,14.0463072 12.2193488,14.0463072 L13.495824,14.0463072 Z M13.495824,16.1737657 C13.7311209,16.1737657 13.9213157,16.364386 13.9213157,16.5992575 C13.9213157,16.8345544 13.7311209,17.0247492 13.495824,17.0247492 L11.7938571,17.0247492 C11.5585602,17.0247492 11.3683654,16.8345544 11.3683654,16.5992575 C11.3683654,16.364386 11.5585602,16.1737657 11.7938571,16.1737657 L13.495824,16.1737657 Z M6.53048205,6.38745627 L5.41143884,5.31521715 C5.00126482,4.92546674 4.87276632,4.32382145 5.08806513,3.80046664 C5.21954207,3.45752031 5.49270775,3.18775857 5.83693055,3.06011105 L5.83693055,2.55803083 C5.83395211,2.52994837 5.83395211,2.50144043 5.83693055,2.47293248 C5.8603326,2.23933753 6.06924903,2.06871535 6.30284398,2.0921174 C6.53686443,2.11551944 6.70706111,2.32443587 6.68365907,2.55803083 L6.68365907,3.0728758 C6.80662617,3.11670145 6.92150894,3.17967422 7.02405244,3.26009216 C7.14659405,3.35838075 7.25041403,3.47836941 7.33040648,3.61325028 C7.40316556,3.78940385 7.34997909,3.99193791 7.2006315,4.10979912 C7.0159681,4.25531728 6.74833381,4.2234054 6.60281564,4.038742 C6.57515868,3.99151242 6.53899188,3.94981423 6.49644271,3.9153494 C6.430066,3.86216294 6.34752061,3.83408048 6.26242227,3.83450598 C6.09265107,3.83961188 5.9424525,3.94470833 5.87947972,4.10256576 C5.79438138,4.30212137 5.83990899,4.53358886 5.99436249,4.68548941 L7.1134057,5.75772853 C7.52187775,6.14705345 7.65037625,6.74614579 7.4367794,7.26822412 C7.30657894,7.61287241 7.03341326,7.88476162 6.68791398,8.01283463 L6.68791398,8.51491485 C6.68791398,8.75021177 6.4972937,8.94040657 6.26242227,8.94040657 C6.02755084,8.94040657 5.83693055,8.75021177 5.83693055,8.51491485 L5.83693055,8.01283463 C5.42207613,7.86901843 5.1101907,7.52181719 5.01147662,7.09377252 C4.95403524,6.86613445 5.09232005,6.63466696 5.31995812,6.57680009 C5.54802168,6.5193587 5.77948917,6.65764351 5.83693055,6.88528158 C5.87267186,7.09164506 6.05308034,7.24141815 6.26242227,7.2384397 C6.43219346,7.2337593 6.58281753,7.12823735 6.64536481,6.97037992 C6.73046316,6.77082431 6.68493554,6.53978231 6.53048205,6.38745627 Z M16.474266,18.3012243 L15.6913612,19.0585996 L14.72975,18.3782383 C14.5829553,18.2748438 14.3872291,18.2748438 14.2404345,18.3782383 L13.2788232,19.0547702 L12.3172119,18.3782383 C12.1704173,18.2748438 11.9746911,18.2748438 11.8278965,18.3782383 L10.8662852,19.0547702 L9.90892882,18.3782383 C9.76213418,18.2748438 9.56640799,18.2748438 9.41961335,18.3782383 L8.45800207,19.0547702 L7.49639079,18.3782383 C7.34959615,18.2748438 7.15386996,18.2748438 7.00707532,18.3782383 L6.04546404,19.0585996 L5.08810768,18.3782383 C4.94131304,18.2748438 4.74558685,18.2748438 4.59879221,18.3782383 L3.63718093,19.0585996 L2.85853109,18.3012243 L2.85853109,2.41761856 C2.84917027,1.56493316 3.53293546,0.86542478 4.38562086,0.856063963 C4.38604635,0.856063963 4.38604635,0.856063963 4.38604635,0.856063963 L11.3683654,0.856063963 L11.3683654,5.53647284 C11.3683654,5.77176976 11.5585602,5.96196456 11.7938571,5.96196456 L16.474266,5.96196456 L16.474266,18.3012243 Z M12.2193488,1.45600728 L15.8743227,5.11098112 L12.2193488,5.11098112 L12.2193488,1.45600728 Z M17.3252494,18.6292784 C17.3261004,18.6148117 17.3261004,18.600345 17.3252494,18.5863038 L17.3252494,5.62157118 L17.3252494,5.59178676 C17.3431201,5.46073531 17.2992944,5.32840739 17.2061118,5.23437372 L12.1002112,0.128473128 C12.00405,0.0301845415 11.8661907,-0.0161940555 11.7300334,0.00508053028 L4.38604635,0.00508053028 C3.0631926,0.014441348 1.99818684,1.09476482 2.00754766,2.41761856 L2.00754766,18.5863038 C2.00669667,18.602047 2.00669667,18.6173647 2.00754766,18.6331079 C1.97648676,18.7960712 2.04286347,18.9624385 2.17774434,19.0585996 L3.3818859,19.909583 C3.52868054,20.012552 3.72440673,20.012552 3.87120137,19.909583 L4.82855773,19.2330512 L5.7859141,19.909583 C5.93270874,20.012552 6.12843493,20.012552 6.27522957,19.909583 L7.23258593,19.2330512 L8.19419721,19.909583 C8.34099185,20.012552 8.53671804,20.012552 8.68351268,19.909583 L9.66639855,19.2462414 L10.6237549,19.9227733 C10.7705495,20.0257422 10.9662757,20.0257422 11.1130704,19.9227733 L12.0746817,19.2462414 L13.0362929,19.9227733 C13.1830876,20.0257422 13.3788138,20.0257422 13.5256084,19.9227733 L14.4872197,19.2462414 L15.448831,19.9227733 C15.5956256,20.0257422 15.7913518,20.0257422 15.9381464,19.9227733 L17.1465429,19.0717898 C17.2912101,18.9743522 17.3618417,18.7990496 17.3252494,18.6292784 Z"/>
 
</svg>
