<svg xmlns="http://www.w3.org/2000/svg" xmlns:xlink="http://www.w3.org/1999/xlink" width="20" height="18" viewBox="0 0 20 18">
  <defs>
    <path id="4-patients-a" d="M3.26716029,6.32175298 C3.26716029,4.88636481 4.43101529,3.72275734 5.86615593,3.72275734 C7.30179162,3.72300486 8.46539909,4.88661234 8.46515157,6.3220005 C8.46515157,7.75738866 7.30154409,8.92099614 5.86615593,8.92074862 C5.85774014,8.92074862 5.84981939,8.92074862 5.84140359,8.92074862 C4.40601543,8.92074862 3.24240795,7.75714114 3.24240795,6.32175298 L3.26716029,6.32175298 Z M9.43049281,6.32175298 C9.43049281,4.33958564 7.82357093,2.73266376 5.84140359,2.73266376 C3.85923625,2.73266376 2.25231437,4.33958564 2.25231437,6.32175298 C2.25231437,8.30392032 3.85923625,9.9108422 5.84140359,9.9108422 C7.82357093,9.9108422 9.43049281,8.30392032 9.43049281,6.32175298 Z M19.0097967,15.6038803 L11.6828567,15.6038803 C11.6162729,14.204383 10.9704844,12.8952318 9.90093577,11.9900387 C10.6353377,10.7779166 11.9489443,10.0368316 13.3660158,10.0346039 L14.9256607,10.0346039 C17.1810938,10.0346039 19.0097967,11.8633067 19.0097967,14.1187399 L19.0097967,15.6038803 Z M10.6927631,17.3117917 L0.990093577,17.3117917 L0.990093577,15.8514037 C0.990093577,13.5959705 2.81854889,11.7672677 5.07422958,11.7672677 L6.63337944,11.7672677 C8.87940672,11.7808814 10.6927631,13.6056239 10.6927631,15.8514037 L10.6927631,17.3117917 Z M19.9998903,14.1187399 C19.9998903,11.31628 17.727873,9.04451032 14.9256607,9.04451032 L13.3910156,9.04451032 C11.649441,9.04500536 10.0308856,9.94326776 9.10886091,11.4207349 C8.35292446,10.9964798 7.50020637,10.7746988 6.63337944,10.7771741 L5.07422958,10.7771741 C2.27176971,10.7771741 0,13.0491913 0,15.8514037 L0,18.3266376 L11.6828567,18.3266376 L11.6828567,16.5939738 L19.9998903,16.5939738 L19.9998903,14.1187399 Z M11.5840949,4.58908922 C11.5840949,3.15370105 12.7477023,1.99009358 14.1830905,1.99009358 C15.6184787,1.9903411 16.7820861,3.15394858 16.7820861,4.58933674 C16.7818386,6.0247249 15.6182311,7.18833238 14.182843,7.18808486 C14.1746747,7.18808486 14.1665064,7.18808486 14.1580906,7.18808486 C12.72295,7.18808486 11.559095,6.02447738 11.559095,4.58908922 L11.5840949,4.58908922 Z M17.7471798,4.58908922 C17.7471798,2.60692188 16.1405055,1 14.1580906,1 C12.1761708,1 10.5690014,2.60692188 10.5690014,4.58908922 C10.5690014,6.57125656 12.1761708,8.17817844 14.1580906,8.17817844 C16.1405055,8.17817844 17.7471798,6.57125656 17.7471798,4.58908922 Z"/>
  </defs>
  <g fill="none" fill-rule="evenodd" transform="translate(0 -1)">
    <mask id="4-patients-b" fill="#fff">
      <use xlink:href="#4-patients-a"/>
    </mask>
    <use fill="#FFF" xlink:href="#4-patients-a"/>
    <g fill="#FFF" mask="url(#4-patients-b)">
      <rect width="20" height="20"/>
    </g>
  </g>
</svg>
