<svg xmlns="http://www.w3.org/2000/svg" xmlns:xlink="http://www.w3.org/1999/xlink" viewBox="0 0 19 20">

    <path id="6-payments-a" d="M9.98787879,3.36429628e-16 L5.08888889,3.36429628e-16 C4.8099572,3.81286799e-16 4.58383838,0.226118813 4.58383838,0.505050505 L4.58383838,1.97979798 C3.82439359,2.12862511 3.07743643,2.33528776 2.34949495,2.5979798 C1.58537405,2.87642847 1.07685257,3.60288773 1.07676768,4.41616162 L1.07676768,17.0828283 C1.07685257,17.8961022 1.58537405,18.6225614 2.34949495,18.9010101 C5.70184517,20.1172766 9.3749225,20.1172766 12.7272727,18.9010101 C13.4913936,18.6225614 13.9999151,17.8961022 14,17.0828283 L14,16.5575758 L17.7171717,16.5575758 C18.088094,16.5565182 18.4432523,16.407456 18.7038227,16.143472 C18.9643931,15.879488 19.1088205,15.5224198 19.1050505,15.1515152 L19.1050505,6.51515152 C19.1039379,5.74799284 18.4823102,5.12636516 17.7151515,5.12525253 L14,5.12525253 L14,4.40808081 C13.9999151,3.59480692 13.4913936,2.86834767 12.7272727,2.58989899 C11.999764,2.3300552 11.2534905,2.12609628 10.4949495,1.97979798 L10.4949495,0.505050505 C10.4949506,0.370752025 10.4414628,0.241983347 10.3463101,0.147209717 C10.2511574,0.0524360871 10.1221762,-0.000537193926 9.98787879,3.36429628e-16 Z M9.48484848,1.01010101 L9.48484848,4.27676768 L5.59393939,4.27676768 L5.59393939,1.01010101 L9.48484848,1.01010101 Z M18.0949495,6.51515152 L18.0949495,15.1515152 C18.0949495,15.3612718 17.9249081,15.5313131 17.7151515,15.5313131 L16.8888889,15.5313131 L16.8888889,6.13535354 L17.7151515,6.13535354 C17.9249081,6.13535354 18.0949495,6.30539488 18.0949495,6.51515152 Z M15.8727273,6.13535354 L15.8727273,15.5393939 L13.9939394,15.5393939 L13.9939394,6.13535354 L15.8727273,6.13535354 Z M12.3818182,3.54747475 C12.7439748,3.67931964 12.9857758,4.022677 12.9878788,4.40808081 L12.9878788,17.0747475 C12.9857758,17.4601513 12.7439748,17.8035086 12.3818182,17.9353535 C9.24957037,19.0728527 5.8170963,19.0728527 2.68484848,17.9353535 C2.32269183,17.8035086 2.08089088,17.4601513 2.07878788,17.0747475 L2.07878788,4.40808081 C2.08089088,4.022677 2.32269183,3.67931964 2.68484848,3.54747475 C3.30122394,3.32414111 3.93237374,3.14390902 4.57373737,3.00808081 L4.57373737,4.27676768 L4.08888889,4.27676768 C3.8099572,4.27676768 3.58383838,4.50288649 3.58383838,4.78181818 C3.58383838,5.06074987 3.8099572,5.28686869 4.08888889,5.28686869 L10.9878788,5.28686869 C11.2668105,5.28686869 11.4929293,5.06074987 11.4929293,4.78181818 C11.4929293,4.50288649 11.2668105,4.27676768 10.9878788,4.27676768 L10.4949495,4.27676768 L10.4949495,3.00808081 C11.1356234,3.1440248 11.7660934,3.32425553 12.3818182,3.54747475 Z M10.230303,6.31111111 L4.83838384,6.31111111 C4.23300533,6.31222292 3.74252595,6.8027023 3.74141414,7.40808081 L3.74141414,9.17575758 C3.74141312,9.78192487 4.23221756,10.2736332 4.83838384,10.2747475 L10.230303,10.2747475 C10.8356815,10.2736357 11.3261609,9.78315629 11.3272727,9.17777778 L11.3272727,7.40808081 C11.3261609,6.8027023 10.8356815,6.31222292 10.230303,6.31111111 Z M10.3171717,9.17777778 C10.3171717,9.22575403 10.2782793,9.26464646 10.230303,9.26464646 L4.83838384,9.26464646 C4.79040759,9.26464646 4.75151515,9.22575403 4.75151515,9.17777778 L4.75151515,7.40808081 C4.75151515,7.36010456 4.79040759,7.32121212 4.83838384,7.32121212 L10.230303,7.32121212 C10.2782793,7.32121212 10.3171717,7.36010456 10.3171717,7.40808081 L10.3171717,9.17777778 Z M7.53737374,12.6525253 C7.19038271,12.6525253 6.90909091,12.3712334 6.90909091,12.0242424 C6.90909091,11.6772514 7.19038271,11.3959596 7.53737374,11.3959596 C7.88436476,11.3959596 8.16565657,11.6772514 8.16565657,12.0242424 C8.16565657,12.3712334 7.88436476,12.6525253 7.53737374,12.6525253 Z M10.0222222,12.6525253 C9.6752312,12.6525253 9.39393939,12.3712334 9.39393939,12.0242424 C9.39393939,11.6772514 9.6752312,11.3959596 10.0222222,11.3959596 C10.3692132,11.3959596 10.6505051,11.6772514 10.6505051,12.0242424 C10.6505051,12.3712334 10.3692132,12.6525253 10.0222222,12.6525253 Z M5.05454545,12.6525253 C4.70755443,12.6525253 4.42626263,12.3712334 4.42626263,12.0242424 C4.42626263,11.6772514 4.70755443,11.3959596 5.05454545,11.3959596 C5.40153648,11.3959596 5.68282828,11.6772514 5.68282828,12.0242424 C5.68282828,12.3712334 5.40153648,12.6525253 5.05454545,12.6525253 Z M7.53737374,14.8505051 C7.19038271,14.8505051 6.90909091,14.5692132 6.90909091,14.2222222 C6.90909091,13.8752312 7.19038271,13.5939394 7.53737374,13.5939394 C7.88436476,13.5939394 8.16565657,13.8752312 8.16565657,14.2222222 C8.16565657,14.5692132 7.88436476,14.8505051 7.53737374,14.8505051 Z M10.0222222,14.8505051 C9.6752312,14.8505051 9.39393939,14.5692132 9.39393939,14.2222222 C9.39393939,13.8752312 9.6752312,13.5939394 10.0222222,13.5939394 C10.3692132,13.5939394 10.6505051,13.8752312 10.6505051,14.2222222 C10.6505051,14.5692132 10.3692132,14.8505051 10.0222222,14.8505051 Z M5.05454545,14.8505051 C4.70755443,14.8505051 4.42626263,14.5692132 4.42626263,14.2222222 C4.42626263,13.8752312 4.70755443,13.5939394 5.05454545,13.5939394 C5.40153648,13.5939394 5.68282828,13.8752312 5.68282828,14.2222222 C5.68282828,14.5692132 5.40153648,14.8505051 5.05454545,14.8505051 Z M7.53737374,17.0464646 C7.19038271,17.0464646 6.90909091,16.7651728 6.90909091,16.4181818 C6.90909091,16.0711908 7.19038271,15.789899 7.53737374,15.789899 C7.88436476,15.789899 8.16565657,16.0711908 8.16565657,16.4181818 C8.16565657,16.7651728 7.88436476,17.0464646 7.53737374,17.0464646 Z M10.0222222,17.0464646 C9.6752312,17.0464646 9.39393939,16.7651728 9.39393939,16.4181818 C9.39393939,16.0711908 9.6752312,15.789899 10.0222222,15.789899 C10.3692132,15.789899 10.6505051,16.0711908 10.6505051,16.4181818 C10.6505051,16.7651728 10.3692132,17.0464646 10.0222222,17.0464646 Z M5.05454545,17.0464646 C4.70755443,17.0464646 4.42626263,16.7651728 4.42626263,16.4181818 C4.42626263,16.0711908 4.70755443,15.789899 5.05454545,15.789899 C5.40153648,15.789899 5.68282828,16.0711908 5.68282828,16.4181818 C5.68282828,16.7651728 5.40153648,17.0464646 5.05454545,17.0464646 Z"/>
  
</svg>
