<svg xmlns="http://www.w3.org/2000/svg" xmlns:xlink="http://www.w3.org/1999/xlink" viewBox="0 0 20 20">
  
    <path id="queue2-a" d="M12.4,6.93333333 C13.3333333,6.2 13.8666667,5.13333333 13.8666667,3.86666667 C13.8666667,1.73333333 12.1333333,0 10,0 C9.13333333,0 8.33333333,0.266666667 7.66666667,0.8 C7,0.266666667 6.2,0 5.33333333,0 C3.2,0 1.46666667,1.73333333 1.46666667,3.86666667 C1.46666667,5.13333333 2.06666667,6.2 2.93333333,6.93333333 C1.2,7.8 0,9.6 0,11.6666667 L0,19.2666667 C0,19.6666667 0.333333333,19.9333333 0.666666667,19.9333333 C1.06666667,19.9333333 1.33333333,19.6666667 1.33333333,19.2666667 L1.33333333,11.6666667 C1.33333333,9.6 2.86666667,7.93333333 4.8,7.73333333 C5,7.73333333 5.13333333,7.66666667 5.33333333,7.66666667 C5.53333333,7.66666667 5.66666667,7.66666667 5.86666667,7.73333333 C7.86666667,8 9.33333333,9.66666667 9.33333333,11.6666667 L9.33333333,19.2666667 C9.33333333,19.6666667 9.66666667,19.9333333 10,19.9333333 C10.4,19.9333333 10.6666667,19.6666667 10.6666667,19.2666667 L10.6666667,11.6666667 C10.6666667,9.6 9.46666667,7.8 7.73333333,6.93333333 C8.66666667,6.2 9.2,5.13333333 9.2,3.86666667 C9.2,3.06666667 9,2.33333333 8.53333333,1.73333333 C8.93333333,1.46666667 9.4,1.33333333 9.93333333,1.33333333 C11.3333333,1.33333333 12.4666667,2.46666667 12.4666667,3.86666667 C12.4666667,5.13333333 11.6,6.13333333 10.4,6.4 C10.2666667,6.46666667 10.0666667,6.46666667 9.93333333,6.46666667 C9.6,6.46666667 9.26666667,6.73333333 9.26666667,7.13333333 C9.26666667,7.13333333 9.26666667,7.13333333 9.26666667,7.13333333 C9.26666667,7.46666667 9.6,7.73333333 9.93333333,7.73333333 C10.1333333,7.73333333 10.2666667,7.73333333 10.4666667,7.8 C10.4666667,7.8 10.4666667,7.8 10.4666667,7.8 C12.4666667,8.06666667 13.9333333,9.73333333 13.9333333,11.7333333 L13.9333333,19.3333333 C13.9333333,19.7333333 14.2666667,20 14.6,20 C15,20 15.2666667,19.7333333 15.2666667,19.3333333 L15.2666667,11.6666667 C15.3333333,9.6 14.1333333,7.8 12.4,6.93333333 Z M5.86666667,6.33333333 C5.73333333,6.4 5.53333333,6.4 5.4,6.4 C5.26666667,6.4 5.06666667,6.4 4.93333333,6.33333333 C3.73333333,6.13333333 2.86666667,5.06666667 2.86666667,3.8 C2.86666667,2.4 4,1.26666667 5.4,1.26666667 C6.8,1.26666667 7.93333333,2.4 7.93333333,3.8 C7.93333333,5.13333333 7,6.13333333 5.86666667,6.33333333 Z M19.7333333,5.06666667 L16.6,8.2 C16.4666667,8.33333333 16.2666667,8.4 16.1333333,8.4 C15.9333333,8.4 15.8,8.33333333 15.6666667,8.2 C15.4,7.93333333 15.4,7.53333333 15.6666667,7.26666667 L18.3333333,4.6 L15.6666667,1.93333333 C15.4,1.66666667 15.4,1.26666667 15.6666667,1 C15.9333333,0.733333333 16.3333333,0.733333333 16.6,1 L19.7333333,4.13333333 C20,4.4 20,4.8 19.7333333,5.06666667 Z"/>
  
</svg>
