<svg xmlns="http://www.w3.org/2000/svg" xmlns:xlink="http://www.w3.org/1999/xlink" width="20" height="20" viewBox="0 0 20 20">
  <defs>
    <path id="7-reports-a" d="M16.2222222,17.5555556 L18,17.5555556 L18,2.88888889 L16.2222222,2.88888889 L16.2222222,17.5555556 Z M15.3333333,17.7777778 L15.3333333,2.66666667 C15.3333333,2.28888889 15.6222222,2 16,2 L18.2222222,2 C18.6,2 18.8888889,2.28888889 18.8888889,2.66666667 L18.8888889,17.7777778 C18.8888889,18.1555556 18.6,18.4444444 18.2222222,18.4444444 L16,18.4444444 C15.6222222,18.4444444 15.3333333,18.1555556 15.3333333,17.7777778 Z M11.7777778,17.5555556 L13.5555556,17.5555556 L13.5555556,7.33333333 L11.7777778,7.33333333 L11.7777778,17.5555556 Z M10.8888889,17.7777778 L10.8888889,7.11111111 C10.8888889,6.73333333 11.1777778,6.44444444 11.5555556,6.44444444 L13.7777778,6.44444444 C14.1555556,6.44444444 14.4444444,6.73333333 14.4444444,7.11111111 L14.4444444,17.7777778 C14.4444444,18.1555556 14.1555556,18.4444444 13.7777778,18.4444444 L11.5555556,18.4444444 C11.1777778,18.4444444 10.8888889,18.1555556 10.8888889,17.7777778 Z M7.33333333,17.5555556 L9.11111111,17.5555556 L9.11111111,5.11111111 L7.33333333,5.11111111 L7.33333333,17.5555556 Z M6.44444444,17.7777778 L6.44444444,4.88888889 C6.44444444,4.51111111 6.73333333,4.22222222 7.11111111,4.22222222 L9.33333333,4.22222222 C9.71111111,4.22222222 10,4.51111111 10,4.88888889 L10,17.7777778 C10,18.1555556 9.71111111,18.4444444 9.33333333,18.4444444 L7.11111111,18.4444444 C6.73333333,18.4444444 6.44444444,18.1555556 6.44444444,17.7777778 Z M2.88888889,17.5555556 L4.66666667,17.5555556 L4.66666667,9.77777778 L2.88888889,9.77777778 L2.88888889,17.5555556 Z M2,17.7777778 L2,9.55555556 C2,9.17777778 2.28888889,8.88888889 2.66666667,8.88888889 L4.88888889,8.88888889 C5.26666667,8.88888889 5.55555556,9.17777778 5.55555556,9.55555556 L5.55555556,17.7777778 C5.55555556,18.1555556 5.26666667,18.4444444 4.88888889,18.4444444 L2.66666667,18.4444444 C2.28888889,18.4444444 2,18.1555556 2,17.7777778 Z M20,19.5555556 C20,19.8 19.8,20 19.5555556,20 L0,20 L0,0.444444444 C0,0.2 0.2,0 0.444444444,0 C0.688888889,0 0.888888889,0.2 0.888888889,0.444444444 L0.888888889,19.1111111 L19.5555556,19.1111111 C19.8,19.1111111 20,19.3111111 20,19.5555556 Z"/>
  </defs>
  <g fill="none" fill-rule="evenodd">
    <mask id="7-reports-b" fill="#fff">
      <use xlink:href="#7-reports-a"/>
    </mask>
    <use fill="#FFF" xlink:href="#7-reports-a"/>
    <g fill="#FFF" mask="url(#7-reports-b)">
      <rect width="20" height="20"/>
    </g>
  </g>
</svg>
