<svg xmlns="http://www.w3.org/2000/svg" xmlns:xlink="http://www.w3.org/1999/xlink" width="20" height="20" viewBox="0 0 20 20">
  <defs>
    <path id="12-settings-a" d="M10,5.61088037 C7.61437791,5.61088037 5.67364892,7.57968294 5.67364892,9.99981422 C5.67364892,12.4199455 7.61437791,14.3887481 10,14.3887481 C12.3856221,14.3887481 14.3263511,12.4199455 14.3263511,9.99981422 C14.3263511,7.57968294 12.3856221,5.61088037 10,5.61088037 M10,15.120237 C7.21671414,15.120237 4.9525904,12.8233617 4.9525904,9.99981422 C4.9525904,7.17626677 7.21671414,4.87939139 10,4.87939139 C12.7832859,4.87939139 15.0474096,7.17626677 15.0474096,9.99981422 C15.0474096,12.8233617 12.7832859,15.120237 10,15.120237 M4.79864441,15.3422439 C4.9796301,15.3422439 5.16025525,15.3967399 5.3062696,15.5046345 L6.29015395,16.2306373 C6.57461153,16.4409404 6.71053106,16.8578891 6.60705916,17.2005917 L6.17478458,18.6288239 L8.43638461,19.3796973 L8.09532394,19.2611961 L8.5730252,17.8483252 C8.68947615,17.5034281 9.03378159,17.2525274 9.39178714,17.2525274 L10.6082129,17.2525274 C10.9600894,17.2525274 11.311966,17.5085486 11.4269748,17.8483252 L11.9046761,19.2611961 L13.8208891,18.6390648 L13.3929408,17.2005917 C13.2873058,16.8520372 13.4203411,16.4442321 13.7094855,16.2306373 L14.6940909,15.5046345 C14.978188,15.2943314 15.4111836,15.2914055 15.7010491,15.4976854 L16.9055774,16.3560877 L18.0964055,14.7106032 L16.9174749,13.8020939 C16.630133,13.5833787 16.5017846,13.1741106 16.6121066,12.8288478 L16.9881386,11.6540765 C17.0966579,11.3150314 17.4449292,11.0542556 17.7989689,11.0484037 L19.2706493,11.0242645 L19.2789415,8.98341029 L17.7989689,8.95159052 C17.4395212,8.94537286 17.0981,8.69044895 16.9881386,8.3455519 L16.6121066,7.17114635 C16.5032267,6.83173547 16.6340989,6.41332377 16.9174749,6.19753453 L18.0942423,5.29999755 L16.9174749,3.64536949 L15.7010491,4.50194308 C15.4057757,4.71188042 14.9821538,4.70858872 14.6937304,4.49535968 L13.7098461,3.76899113 C13.4253885,3.55941954 13.2891084,3.14210508 13.3929408,2.79940249 L13.8252154,1.37117027 L11.9147709,0.732946136 L11.4269748,2.151669 C11.3101633,2.4969318 10.9658579,2.74710103 10.6082129,2.74710103 L9.39178714,2.74710103 C9.03955006,2.74710103 8.6876735,2.49107989 8.5730252,2.151669 L8.09532394,0.738432303 L6.17947146,1.36056368 L6.60705916,2.79940249 C6.71233371,3.14759124 6.57929841,3.55539635 6.29015395,3.76899113 L5.3062696,4.49535968 C5.02181202,4.70529702 4.58881638,4.70858872 4.29895086,4.50194308 L3.09442261,3.64390651 L1.90359448,5.28939096 L3.08252515,6.19753453 C3.37022749,6.41661547 3.49857591,6.8262493 3.38789343,7.17114635 L3.01222194,8.3455519 C2.90334211,8.68496279 2.55471031,8.94537286 2.20103111,8.95159052 L0.729350687,8.97572965 L0.721058514,11.0162182 L2.20103111,11.0484037 C2.56047878,11.0542556 2.90153946,11.3091795 3.01222194,11.6540765 L3.38789343,12.8288478 C3.49641273,13.1682587 3.36554061,13.5866704 3.08252515,13.8020939 L1.90575765,14.6996309 L3.08252515,16.3546247 L4.29895086,15.4976854 C4.44460468,15.3941797 4.62198507,15.3422439 4.79864441,15.3422439 M11.9082814,20 C11.6054368,20 11.3274687,19.8072527 11.2229152,19.4989301 L10.7444929,18.0853276 C10.7293507,18.0399753 10.6540001,17.9840164 10.6082129,17.9840164 L9.39178714,17.9840164 C9.34888416,17.9840164 9.27209143,18.0352206 9.25550708,18.0849619 L8.77744529,19.4985643 C8.64873634,19.8782071 8.23809352,20.0866814 7.86278256,19.9626941 L5.95666438,19.3347108 C5.57450337,19.2088947 5.36755958,18.8043813 5.48545264,18.4141319 L5.91772722,16.9858997 C5.93142734,16.9401816 5.90294552,16.8498427 5.86581101,16.8220461 L4.88192667,16.0960433 C4.84767639,16.0704412 4.75610196,16.0660523 4.71319898,16.0964091 L3.50867073,16.9548114 C3.18455493,17.1852304 2.73173018,17.1087898 2.49954934,16.785106 L1.32061867,15.1410845 C1.08411148,14.8108172 1.15080939,14.36022 1.47276201,14.1148054 L2.64916898,13.2176342 C2.68702455,13.1887404 2.71622742,13.0987673 2.70216678,13.0548779 L2.32613477,11.8801066 C2.31315571,11.8387775 2.24141039,11.7806241 2.18913365,11.7798926 L0.717453221,11.7557535 C0.321952626,11.7488044 0,11.4170741 0,11.0162182 L0,8.98341029 C0,8.57560518 0.315102571,8.25082408 0.717453221,8.24424068 L2.18913365,8.22010154 C2.23636298,8.21937005 2.31207412,8.16377689 2.32613477,8.11952181 L2.70216678,6.94511626 C2.71514583,6.90378713 2.6913509,6.81417973 2.64952951,6.78235996 L1.47240149,5.88482299 C1.15621733,5.64343163 1.0880773,5.18332506 1.32061867,4.8589097 L2.49954934,3.21525397 C2.73605653,2.88535245 3.17914699,2.81037483 3.50867073,3.04518279 L4.71355951,3.9035851 C4.75213614,3.93101594 4.84515268,3.93065019 4.88192667,3.90395084 L5.86581101,3.17758229 C5.90042182,3.15198018 5.93322998,3.06493299 5.91772722,3.0140945 L5.48545264,1.58586228 C5.36936222,1.20183057 5.58063237,0.788905042 5.95666438,0.664917661 L7.86278256,0.03730012 C8.24422252,-0.0888817282 8.64657317,0.114837951 8.77744529,0.50106413 L9.25514656,1.91466658 C9.27064931,1.96001889 9.34599993,2.01561205 9.39178714,2.01561205 L10.6082129,2.01561205 C10.6511158,2.01561205 10.7279086,1.96477357 10.7444929,1.91430083 L11.2225547,0.501429875 C11.3512637,0.121055608 11.7640697,-0.0866872613 12.137578,0.03730012 L14.0433356,0.664917661 C14.4258572,0.791099509 14.6331615,1.19561291 14.5145474,1.58586228 L14.0822728,3.01372876 C14.0682121,3.05981257 14.0966939,3.15015145 14.1338285,3.17758229 L15.1177128,3.90395084 C15.1523236,3.92918721 15.2442586,3.93394189 15.2871616,3.90321935 L16.4916898,3.04518279 C16.8154451,2.8151295 17.2675488,2.89083861 17.5004507,3.21525397 L18.6793813,4.8589097 C18.9158885,5.18881123 18.8491906,5.63977418 18.527238,5.88482299 L17.3504705,6.78235996 C17.3126149,6.81088803 17.283412,6.90086118 17.2978332,6.94475051 L17.6738652,8.11952181 C17.6868443,8.16121668 17.7585896,8.21900431 17.8108664,8.22010154 L19.2825468,8.24424068 C19.6784079,8.25082408 20,8.58255433 20,8.98341029 L20,11.0162182 C20,11.424389 19.6848974,11.7488044 19.2825468,11.7557535 L17.8108664,11.7798926 C17.763637,11.7806241 17.6879259,11.8358515 17.6738652,11.8797409 L17.2978332,13.0548779 C17.2844936,13.0958413 17.3086491,13.1858145 17.3504705,13.2176342 L18.527238,14.1148054 C18.8434221,14.3558311 18.9119227,14.8159376 18.6797419,15.1407187 L17.5004507,16.785106 C17.2632224,17.1146417 16.8204925,17.1892536 16.4916898,16.9548114 L15.286801,16.0964091 C15.2482244,16.0686125 15.1552078,16.0689782 15.1177128,16.0960433 L14.1338285,16.8220461 C14.0992177,16.8476483 14.06677,16.9350612 14.0822728,16.9858997 L14.5145474,18.4137662 C14.6306378,18.7981636 14.4193676,19.2110891 14.0433356,19.3347108 L12.1372174,19.9626941 C12.0611458,19.9879304 11.9839925,20 11.9082814,20"/>
  </defs>
  <g fill="none" fill-rule="evenodd">
    <mask id="12-settings-b" fill="#fff">
      <use xlink:href="#12-settings-a"/>
    </mask>
    <use fill="#FFF" xlink:href="#12-settings-a"/>
    <g fill="#FFF" mask="url(#12-settings-b)">
      <rect width="20" height="20"/>
    </g>
  </g>
</svg>
